<?xml version="1.0" encoding="utf-8"?>
<!-- Generator: Adobe Illustrator 27.5.0, SVG Export Plug-In . SVG Version: 6.00 Build 0)  -->
<svg version="1.1" id="Layer_1" xmlns="http://www.w3.org/2000/svg" xmlns:xlink="http://www.w3.org/1999/xlink" x="0px" y="0px"
	 viewBox="0 0 3000 1800" style="enable-background:new 0 0 3000 1800;" xml:space="preserve">
<rect style="fill:#FFFFFF;" width="3000" height="1800"/>
<g>
	<defs>
		<path id="XMLID_00000101071180140577794210000012690501193165475216_" d="M2803.377,1606.926H379
			c-205.049-224.981-145.755-616.959,119.796-768.349c61.845-37.09,131.955-61.079,187.629-106.926
			c63.656-52.42,102.352-128.198,148.729-196.382c136.344-212.901,374.058-334.263,624.964-327.3
			c332.921-36.421,547.505,157.778,643.925,466.943c21.424,58.383,44.582,122.22,97.777,154.463
			c163.688,68.006,383.736,4.337,517.476,133.339C2879.722,1127.321,2875.296,1400.868,2803.377,1606.926z"/>
	</defs>
	<use xlink:href="#XMLID_00000101071180140577794210000012690501193165475216_"  style="overflow:visible;fill:#DCECFD;"/>
	<clipPath id="XMLID_00000061434051228681579820000005514758465042635663_">
		<use xlink:href="#XMLID_00000101071180140577794210000012690501193165475216_"  style="overflow:visible;"/>
	</clipPath>
	<polygon style="opacity:0.43;clip-path:url(#XMLID_00000061434051228681579820000005514758465042635663_);fill:#F1F8FE;" points="
		2812.406,1018.679 2494.359,1018.679 2494.359,762.729 2240.456,762.729 2240.456,1092.786 2100.036,1092.786 2100.036,1198.831 
		1897.97,1198.831 1897.97,906.954 1721.169,906.954 1721.169,1145.215 1260.734,1145.215 1260.734,897.221 1066.044,897.221 
		1066.044,1060.013 956.135,1060.013 956.135,1206.274 816.747,1206.274 816.747,741.748 602.72,741.748 602.72,1092.786 
		184.96,1092.786 184.96,1627.071 2880.903,1627.071 2880.903,1013.32 	"/>
</g>
<g>
	<g>
		<g>
			<g>
				<defs>
					<polygon id="XMLID_00000155832636793099343430000014475543735379523988_" points="1364.115,1002.814 1464.419,1306.284 
						1477.938,1542.164 1528.222,1545.138 1562.349,1284.613 1508.471,952.649 					"/>
				</defs>
				<use xlink:href="#XMLID_00000155832636793099343430000014475543735379523988_"  style="overflow:visible;fill:#2A437D;"/>
				<clipPath id="XMLID_00000142870147389405352190000003130278657678702211_">
					<use xlink:href="#XMLID_00000155832636793099343430000014475543735379523988_"  style="overflow:visible;"/>
				</clipPath>
			</g>
			<path style="fill:#152E60;" d="M1522.678,1544.671l3.817,18.061l52.97,27.218c6.31,3.242,10.08,9.932,9.585,17.009
				l-112.772-0.842l8.29-64.112L1522.678,1544.671z"/>
		</g>
		<path style="fill:#324D90;" d="M1358.091,971.452c-15.695,43.443-40.839,98.726-37.604,145.679
			c-0.001-0.001,3.274,166.625,3.274,166.625l-31.704,258.249h47.306l81.434-238.539l43.636-313.114L1358.091,971.452z"/>
		<path style="fill:#2A437D;" d="M1433.458,1212.613l15.368-98.293c0,0,49.18,176.362,49.18,194.45s-13.438,233.234-13.438,233.234
			l-6.631,0.159l-13.519-235.88L1433.458,1212.613z"/>
		<path style="fill:#152E60;" d="M1335.941,1542.005l1.669,20.727l52.97,27.218c6.31,3.242,10.08,9.932,9.585,17.009l-112.772-0.842
			l8.29-64.112H1335.941z"/>
	</g>
	<g>
		<defs>
			<path id="XMLID_00000168091390574420074330000010939912702324904873_" d="M1425.968,743.933l-57.012,187.336l-59.377,94.823
				c0,0,41.268,81.117,247.707,0.033l54.752-300.973C1544.293,655.061,1478.567,693.086,1425.968,743.933z"/>
		</defs>
		<use xlink:href="#XMLID_00000168091390574420074330000010939912702324904873_"  style="overflow:visible;fill:#F9CE68;"/>
		<clipPath id="XMLID_00000123434846410632556470000005444181383150112433_">
			<use xlink:href="#XMLID_00000168091390574420074330000010939912702324904873_"  style="overflow:visible;"/>
		</clipPath>
		<path style="clip-path:url(#XMLID_00000123434846410632556470000005444181383150112433_);fill:#F08F3C;" d="M1426.86,945.218
			c0,0-35.612,5.857-43.386-31.052c-7.774-36.91,0,0,0,0s-0.076,45.168,42.086,50.75c42.162,5.582,0,0,0,0L1426.86,945.218"/>
	</g>
	<g>
		<g>
			<g>
				<path style="fill:#1A1949;" d="M1649.953,587.18c2.179,4.379,6.013,34.511-8.665,46.292l-4.087-40.925L1649.953,587.18z"/>
				<g>
					<g>
						<defs>
							<path id="XMLID_00000118368321236331577410000006790002364212657039_" d="M1547.905,601.839
								c-24.147,75.107,66.923,105.946,93.384,31.631C1665.435,558.365,1574.365,527.526,1547.905,601.839z"/>
						</defs>
						<use xlink:href="#XMLID_00000118368321236331577410000006790002364212657039_"  style="overflow:visible;fill:#F4D2C6;"/>
						<clipPath id="XMLID_00000035530868911599383900000004497012389803545788_">
							<use xlink:href="#XMLID_00000118368321236331577410000006790002364212657039_"  style="overflow:visible;"/>
						</clipPath>
						<path style="clip-path:url(#XMLID_00000035530868911599383900000004497012389803545788_);fill:#EDA19D;" d="M1643.464,646.451
							c0,0-90.184-33.149-63.653-63.817c21.366-24.697,0,0,0,0l72.439,7.373L1643.464,646.451z"/>
					</g>
					<path style="fill:#F4D2C6;" d="M1549.276,598.131c0,0-15.872,56.353-31.449,90.96c-6.055,13.452,0.596,29.289,14.46,34.329
						c15.418,6.042,32.471-4.392,34.391-20.853c2.971-25.079,7.971-59.876,13.754-69.768L1549.276,598.131z"/>
				</g>
				<path style="fill:#EDA19D;" d="M1570.739,672.561c0,0-9.868-3.503-19.324-18.56c0,0-5.184,24.631,17.135,33.709
					L1570.739,672.561z"/>
				<g>
					<defs>
						<path id="XMLID_00000079472846815043717370000014904462423633780141_" d="M1582.887,568.23
							c-3.445,39.265-15.735,44.95-44.236,64.702c-4.061-31.634-19.27-61.439,24.721-80.122L1582.887,568.23z"/>
					</defs>
					<use xlink:href="#XMLID_00000079472846815043717370000014904462423633780141_"  style="overflow:visible;fill:#59445A;"/>
					<clipPath id="XMLID_00000073721473147785237650000009093279297708088729_">
						<use xlink:href="#XMLID_00000079472846815043717370000014904462423633780141_"  style="overflow:visible;"/>
					</clipPath>
					<path style="clip-path:url(#XMLID_00000073721473147785237650000009093279297708088729_);fill:#1A1949;" d="M1535.615,565.688
						c0,0,23.817,27.862,28.668,50.059c4.852,22.197,0,0,0,0l-9.703,10.144l-28.889-49.397L1535.615,565.688z"/>
				</g>
				<path style="fill:#F4D2C6;" d="M1545.633,605.178c-5.203,15.59,18.469,23.607,23.81,8.065
					C1574.646,597.654,1550.973,589.636,1545.633,605.178z"/>
			</g>
		</g>
		<path style="fill:#59445A;" d="M1559.712,556.711c1.878,31.585,74.121,54.097,99.69,43.195
			c12.846-6.59,21.784-23.38,19.036-37.788c-5.25-17.909-32.055-27.07-44.613-11.402
			C1615.985,530.835,1565.839,523.785,1559.712,556.711z"/>
	</g>
	<path style="fill:#2A437D;" d="M1437.176,1221.116l-3.074-161.103c0,0-20.943,3.309-50.628,1.374
		C1383.474,1061.387,1418.444,1156.345,1437.176,1221.116z"/>
	<g>
		<g>
			<g>
				<path style="fill:#2A437D;" d="M1777.389,1517.59l21.226,24.216l-55.468,32.973l0,0c-9.668-12.722,4.119-33.021,8.576-44.941
					C1751.723,1529.838,1771.937,1530.995,1777.389,1517.59z"/>
				<g>
					<defs>
						<path id="XMLID_00000163056899088696723660000015086256909038897820_" d="M1432.438,972.78l11.266,590.53h39.711
							c12.997-87.134,91.593-512.41,83.228-591.858L1432.438,972.78z"/>
					</defs>
					<use xlink:href="#XMLID_00000163056899088696723660000015086256909038897820_"  style="overflow:visible;fill:#324D90;"/>
					<clipPath id="XMLID_00000084515560265152950570000015306570533736297144_">
						<use xlink:href="#XMLID_00000163056899088696723660000015086256909038897820_"  style="overflow:visible;"/>
					</clipPath>
				</g>
				<path style="fill:#324D90;" d="M1665.225,1297.598l-34.011-331.256l-133.379,14.933
					c6.728,16.094,87.522,356.862,101.434,358.861c0.002-0.003,139.041,181.186,139.041,181.186l36.257-20.399L1665.225,1297.598z"
					/>
				<path style="fill:#2A437D;" d="M1547.945,1171.198c0,0,38.576-61.747,40.872-118.004c0,0,19.897,122.287-31.617,153.08
					L1547.945,1171.198z"/>
			</g>
			<g>
				<path style="fill:#59445A;" d="M1432.637,586.487c0,0,7.104,35.787-22.877,57.781c0,0,20.253,45.582,63.786,36.699
					l-1.231,33.324l-65.663,61.303c0,0,24.637-46.658-14.678-119.871c-26.666-44.948,19.981-157.647,91.958-92.472
					C1483.932,563.25,1467.429,594.556,1432.637,586.487z"/>
				<g>
					<g>
						<defs>
							<path id="XMLID_00000059283700526373483570000001277864178208956844_" d="M1512.536,619.359
								c-0.083-4.957-0.688-10.176-1.737-15.112l-0.009,0.007c-17.579-81.836-119.335-61.443-106.449,21.067
								c6.063,38.067,37.351,64.458,69.204,55.646c-0.186,11.329-0.683,23.072-1.231,33.324
								c-0.639,42.937,64.58,36.223,55.504-5.557C1520.568,680.486,1515.149,640.772,1512.536,619.359z"/>
						</defs>
						<use xlink:href="#XMLID_00000059283700526373483570000001277864178208956844_"  style="overflow:visible;fill:#F4D2C6;"/>
						<clipPath id="XMLID_00000145753022985598814330000014129332970836153245_">
							<use xlink:href="#XMLID_00000059283700526373483570000001277864178208956844_"  style="overflow:visible;"/>
						</clipPath>
						<path style="clip-path:url(#XMLID_00000145753022985598814330000014129332970836153245_);fill:#FFFFFF;" d="M1451.926,670.628
							c0,0,15.744-2.253,17.759-16.269C1469.684,654.359,1463.689,661.117,1451.926,670.628z"/>
						<path style="clip-path:url(#XMLID_00000145753022985598814330000014129332970836153245_);fill:#EDA19D;" d="M1395.299,617.655
							c0,0,28.341,32.979,97.306,6.316l-81.088-55.663L1395.299,617.655z"/>
					</g>
					<path style="fill:#EDA19D;" d="M1473.546,680.966c0,0,15.986-4.052,20.949-20.594c0,0,4.342,26.441-21.401,36.93
						L1473.546,680.966z"/>
				</g>
				<g>
					<defs>
						<path id="XMLID_00000068673665005695634010000005967959344584447672_" d="M1421.532,1025.983l8.154-123.588
							c-5.783-59.672-37.333-151.756,29.108-190.437c22.768-17.115,51.108-26.954,79.633-21.547
							c41.709,7.151,73.758,40.868,78.785,82.887l24.502,204.801C1641.714,978.1,1531.418,1051.771,1421.532,1025.983z"/>
					</defs>
					<use xlink:href="#XMLID_00000068673665005695634010000005967959344584447672_"  style="overflow:visible;fill:#4292F3;"/>
					<clipPath id="XMLID_00000003082766510115631540000015626762885497451955_">
						<use xlink:href="#XMLID_00000068673665005695634010000005967959344584447672_"  style="overflow:visible;"/>
					</clipPath>
					<path style="clip-path:url(#XMLID_00000003082766510115631540000015626762885497451955_);fill:#3C7ED7;" d="M1415.715,979.795
						c0,0,40.908,1.921,64.444-16.811c23.536-18.733,109.639-102.898,109.639-102.898l-182.176,76.961L1415.715,979.795z"/>
					<path style="clip-path:url(#XMLID_00000003082766510115631540000015626762885497451955_);fill:#3C7ED7;" d="M1562.349,998.3
						c35.612-21.662,58.392-44.569,79.365-78.497l-7.775-37.31l-57.423,65.876L1562.349,998.3"/>
				</g>
				<path style="fill:#4292F3;" d="M1439.325,728.935l-95.667,107.418c-12.135,13.625-12.151,34.176-0.038,47.821
					c11.176,12.589,29.586,15.747,44.318,7.602l85.156-47.076L1439.325,728.935z"/>
				<path style="fill:#4292F3;" d="M1514.769,689.347l122.774-27.976c15.912-3.626,32.286,3.82,40.012,18.195
					c8.763,16.304,3.846,36.591-11.409,47.073l-81.145,55.756L1514.769,689.347z"/>
				<path style="fill:#59445A;" d="M1410.427,555.994c0,0-24.868,66.281,73.505,72.836
					c-15.131,76.857-4.488,195.369,128.107,156.629C1604.225,743.044,1544.877,458.543,1410.427,555.994z"/>
			</g>
		</g>
		<g>
			<path style="fill:#EDA19D;" d="M1451.522,1563.31v9.665c0,0,13.281,8.173,28.605,0l1.456-9.641L1451.522,1563.31z"/>
			<path style="fill:#2A437D;" d="M1451.522,1572.976c-18.456,8.051-45.546,14.48-55.708,33.95h93.785
				c-0.887-14.555,0.719-21.954-9.472-33.95C1480.127,1572.976,1465.575,1577.109,1451.522,1572.976z"/>
		</g>
	</g>
	<path style="fill:#EDA19D;" d="M1751.723,1529.838l-8.455-11.306l26.382-14.843l7.74,13.901
		C1777.389,1517.59,1775.271,1532.815,1751.723,1529.838z"/>
	<path style="fill:#F9CE68;" d="M1669.226,775.594l-17.644-38.948l-37.997,25.611l7.224,47.967l-67.539,126.893l34.607,23.424
		c0,0,88.37-118.664,93.161-135.993C1685.829,807.221,1669.226,775.594,1669.226,775.594z"/>
	<path style="fill:#F9CE68;" d="M1416.775,875.109l161.424-58.88l11.6,43.856l-148.54,79.987
		c-12.761,7.171-28.414,6.825-40.846-0.903v0c-15.676-9.13-20.447-27.471-18.945-44.541L1416.775,875.109z"/>
	<g>
		<defs>
			<path id="XMLID_00000034052956309398717830000006606691538900930986_" d="M1556.562,939.346c0,0-5.432,5.629-10.934,10.118
				l-13.456,8.813l-14.156,17.963c-1.129,5.196,9.648,3.069,12.141,1.15c0.001,0,9.807-8.826,9.807-8.826
				c-5.05,8.769-20.973,32.491-18.731,33.87c3.039,1.871,35.011,1.549,41.115-4.134c6.104-5.684,21.131-40.735,21.131-40.735
				L1556.562,939.346z"/>
		</defs>
		<use xlink:href="#XMLID_00000034052956309398717830000006606691538900930986_"  style="overflow:visible;fill:#F4D2C6;"/>
		<clipPath id="XMLID_00000182515757154377964000000001597712602519372734_">
			<use xlink:href="#XMLID_00000034052956309398717830000006606691538900930986_"  style="overflow:visible;"/>
		</clipPath>
		<path style="clip-path:url(#XMLID_00000182515757154377964000000001597712602519372734_);fill:#EDA19D;" d="M1550.604,938.569
			c0,0,22.185,33.54,29.025,33.54c6.84,0,9.047-22.066,9.047-22.066l-26.328-20.962L1550.604,938.569z"/>
	</g>
	<g>
		<defs>
			<path id="XMLID_00000029739455044726022870000000726114930692309414_" d="M1579.704,821.921
				c15.727-16.631,16.602-17.926,39.692-21.074l1.412,9.378l-22.847,42.926l-10.186-0.717L1579.704,821.921z"/>
		</defs>
		<use xlink:href="#XMLID_00000029739455044726022870000000726114930692309414_"  style="overflow:visible;fill:#F4D2C6;"/>
		<clipPath id="XMLID_00000006687877701053095800000007101247209720079019_">
			<use xlink:href="#XMLID_00000029739455044726022870000000726114930692309414_"  style="overflow:visible;"/>
		</clipPath>
		<path style="clip-path:url(#XMLID_00000006687877701053095800000007101247209720079019_);fill:#EDA19D;" d="M1607.198,800.846
			c0,0-8.127,46.95-12.855,54.19l12.56-0.887l18.766-46.101l-2.955-12.264L1607.198,800.846z"/>
	</g>
	<polygon style="fill:#3C7ED7;" points="1416.135,875.463 1489.074,824.404 1469.052,856.041 	"/>
</g>
<path style="fill:#F08F3C;" d="M1872.576,485.253c11.804-62.194-82.653-80.528-95.002-18.479
	c11.202-68.866-93.727-78.953-95.891-9.267l-0.006-0.001c-11.211,57.637,77.099,105.908,77.099,105.908
	s99.965-11.649,111.177-69.286l-0.006-0.002C1871.081,491.308,1871.974,488.347,1872.576,485.253z"/>
<path style="fill:#F08F3C;" d="M1315.186,613.663c-42.813-38.435-101.502,26.396-59.058,65.187
	c-48.285-41.105-105.486,35.75-52.313,70.212l-0.003,0.004c39.548,35.83,118.627-10.139,118.627-10.139s37.963-83.219-1.585-119.049
	l-0.004,0.003C1319.191,617.674,1317.308,615.586,1315.186,613.663z"/>
<path style="fill:#F08F3C;" d="M1445.125,377.445c-8.805-30.403-55.071-17.212-46.542,13.25
	c-10.583-33.242-59.653-14.004-44.855,17.559l-0.003,0.001c8.038,28.237,58.336,29.785,58.336,29.785s41.94-27.807,33.902-56.043
	l-0.003,0.001C1445.828,380.483,1445.556,378.96,1445.125,377.445z"/>
<path style="fill:#BEDBFA;" d="M2803.377,1606.926c0,0,84.707-234.238,38.151-385.81c0,0-56.29,88.603-56.29,192.905
	c0,0-20.38-140.788-219.646-216.377c0,0,27.173,207.459,122.277,270.862c0,0-65.667-95.104-228.703-104.162
	c0,0,38.495,153.791,153.978,177.66c0,0-106.426-46.156-235.496-38.316C2480.417,1644.377,2636.78,1601.364,2803.377,1606.926z"/>
<path style="fill:#BEDBFA;" d="M372.056,1606.921c0,0-125.734-134.041-131.352-265.919c0,0,78.655,94.893,92.445,150.054
	c0,0-42.903-186.933,1.532-260.481c0,0,78.144,148.627,64.354,239.03c0,0-10.726-86.508,96.531-186.518
	c0,0,7.661,177.325-26.048,237.082c0,0,36.774-59.757,159.353-110.321c0,0-56.693,111.162-121.047,154.118
	c0,0,33.709-28.461,148.627-32.298c0,0-122.579,64.019-177.74,75.292L372.056,1606.921z"/>
<g>
	<path style="fill:#324D90;" d="M2540.406,1284.285c12.074,29.658,51.417,65.895,85.399,41.976
		C2613.981,1289.695,2571.369,1286.457,2540.406,1284.285z"/>
	<path style="fill:#324D90;" d="M2556.096,1233.543c8.807,10.803,22.988,18.571,37.215,11.606
		c-3.434-23.841-29.895-30.009-48.912-33.536C2546.758,1219.116,2550.046,1226.038,2556.096,1233.543z"/>
	<path style="fill:#324D90;" d="M2559.815,1503.573c-22.418,3.492-50.757,23.106-65.457,36.482
		c30.58,14.395,95.717,15.811,100.604-31.94C2581.353,1502.874,2570.337,1501.829,2559.815,1503.573z"/>
	<path style="fill:#324D90;" d="M2731.759,1542.897c-3.498-6.717-7.929-15.292-13.101-25.439
		c72.117-3.079,90.798-92.961,80.684-148.141c-42.122,31.597-100.017,78.861-84.272,141.082
		c-8.417-16.603-18.422-36.651-29.215-58.908c41.894-5.259,44.736-62.546,37.086-92.318c-19.597,15.614-46.106,45.526-45.677,74.472
		c-3.597-7.526-7.253-15.244-10.944-23.12c0.186-0.109,0.365-0.213,0.553-0.324c-1.437-5.767-4.236-10.808-7.701-15.044
		c-4.104-8.884-8.189-17.839-12.232-26.849c45.904-7.637,50.961-66.826,40.002-101.347c-22.324,21.732-53.09,52.97-45.677,88.623
		c-8.935-20.182-18.013-41.415-26.696-62.849c40.211-16.49,21.824-77.936,21.824-77.936s-30.399,25.674-31.288,54.062
		c-8.034-20.755-15.496-41.381-21.886-61.103c21.966-4.354,22.74-40.039,20.087-50.762c-5.147,2.07-26.37,23.572-24.493,36.714
		c-2.251-7.409-4.343-14.67-6.211-21.707c25.283-5.317,20.51-42.989,20.51-42.989s-21.766,12.944-23.57,30.323
		c-2.664-9.841-4.28-19.573-5.681-28.366c19.252-13.839,5.504-49.879-1.043-59.622c-10.64,15.283-21.165,44.614-0.819,59.451
		c1.083,7.419,2.568,15.293,4.417,23.557c-7.285-9.68-20.638-11.088-30.398-16.003c0.606,15.39,16.244,35.258,34.219,31.736
		c18.501,70.53,53.839,153.171,84.97,220.815c-13.362-12.625-30.024-15.462-46.411-19.848c-15.281-4.346-31.674-9.988-45.981-9.957
		c4.644,9.834,14.194,32.22,24.87,42.259c20.164,21.524,53.042,25,77.056,8.092c6.502,13.876,13.197,25.087,15.073,40.324
		c1.396,0.041,2.76-0.007,4.104-0.102c19.794,40.839,36.972,74.31,46.608,92.806c-1.275,1.682-2.526,3.443-3.747,5.295
		c-18.321,1.474-38.16-10.129-62.344-18.195c-18.468-8.298-35.173-12.628-54.816-21.24c3.981-10.606,3.683-20.329,0.859-29.076
		c12.753,13.324,29.009,24.84,47.551,29.345c6.411,15,15.911,25.693,33.792,30.716c7.092-11.509,7.862-23.287,4.654-34.295
		c3.65-1.763,7.235-3.992,10.714-6.738c-18.403-48.712-76.409-49.921-118.432-49.716c-12.278-11.139-24.752-17.96-24.752-17.96
		c-2.303,8.268,2.654,54.817,19.856,67.327c-18.416-7.735-38.468-15.515-57.467-24.615c13.855-28.778-9.729-55.611-26.856-75.052
		c-7.758,19.863-9.162,51.161,9.068,67.531c-12.705-5.677-25.464-11.522-38.146-17.505c18.447-23.203-11.219-61.952-22.856-70.767
		c-4.244,8.959-8.597,50.467,7.878,63.618c-12.865-6.216-25.591-12.562-38.036-19.009c9.29-23.03-11.224-42.463-25.296-54.806
		c-3.152,11.794-3.053,32.581,5.446,44.3c-5.941-3.214-11.795-6.448-17.545-9.698c-6.607-7.346-15.059-7.929-22.359-13.049
		c11.404-16.59-10.281-42.705-18.322-48.492c-1.976,2.459-4.423,30.683,2.442,38.639c-4.835-3.088-9.543-6.182-14.114-9.28
		c5.78-15.615-6.792-29.501-15.392-40.405c-3.515,7.818-5.017,19.164-1.719,28.298c-5.691-4.217-11.09-8.432-16.166-12.639
		c0.364-0.306,0.716-0.637,1.032-1.032c-2.905-22.106-22.606-31.499-40.781-37.795c1.578,16.94,16.327,44.941,38.14,39.859
		c4.371,3.634,8.988,7.273,13.82,10.915c-9.365-1.722-23.722,0.735-31.257,2.976c10.71,12.172,34.305,26.471,50.32,11.491
		c0.423,0.077,0.836,0.169,1.275,0.219c0.022-0.052,0.037-0.101,0.059-0.153c5.624,3.804,11.459,7.602,17.472,11.389
		c2.949,3.473,6.938,6.215,12.263,7.662c0.016-0.026,0.028-0.052,0.044-0.078c0.705,0.425,1.411,0.851,2.119,1.275
		c-13.982-2.066-34.194,3.855-45.139,8.599c16.776,14.779,51.208,30.515,70.186,6.239c-0.166-0.23-0.343-0.427-0.511-0.651
		c5.58,3.119,11.248,6.222,16.996,9.305c3.896,4.189,9.08,7.261,15.759,8.307c7.571,3.926,15.245,7.815,22.993,11.661
		c-21.725-7.658-45.284,6.597-63.165,16.022c20.473,14.845,63.15,20.591,73.669-10.592c-0.592-0.408-1.176-0.754-1.763-1.125
		c20.893,10.261,42.327,20.119,63.513,29.562c-28.335-3.245-56.524,16.543-77.463,31.271
		c30.019,16.296,86.541,20.478,100.022-21.379c36.618,15.881,72.359,30.741,108.802,44.337
		c-19.75-0.042-40.156,11.493-55.718,20.604c22.935,15.295,68.35,22.314,81.495-10.806c15.93,5.978,29.809,11.04,40.958,15.042
		c-23.887,2.129-64.555,12.322-68.027,56.795h161.844c0,0,22.977-58.581,26.006-88.753
		C2829.383,1518.173,2769.898,1494.769,2731.759,1542.897z"/>
</g>
<path style="fill:#324D90;" d="M593.828,1297.898c-14.995,1.143-35.64,5.161-46.019,18.64c6.311-12.254,10.502-25.769,17.581-37.53
	c21.129,3.624,31.979-26.624,31.979-26.624s-15.026,0.995-25.253,8.455c2.365-5.833,4.67-11.695,6.941-17.575
	c24.321-9.297,18.862-50.615,12.962-62.272c-9.853,8.935-33.615,43.696-15.545,63.378c0.084-0.031,0.157-0.071,0.241-0.103
	c-2.748,6.482-4.827,13.442-8.081,19.608c-1.52-14.082-12.799-27.243-12.799-27.243s-16.016,33.057,5.145,46.123
	c-3.142,7.294-6.361,14.549-9.65,21.769c1.725-18.446-13.262-31.589-22.194-45.008c-5.558,6.913-4.901,17.941-5.177,26.845
	c0.21,14.777,4.136,28.651,18.756,36.595c-5.564,11.651-11.32,23.2-17.272,34.642c3.785-18.445-11.797-34.684-22.815-46.545
	c-6.611,17.654-4.453,48.883,19.315,53.208c-10.393,19.656-21.381,38.985-32.915,57.996c13.313-25.597-12.361-47.009-22.544-66.929
	c-15.214,21.429-8.429,62.047,21.117,69.245c-17.113,26.607-34.126,54.115-53.326,79.726c-11.679,7.141-20.385,17.141-25.372,33.261
	c0.01,0.007,0.02,0.013,0.03,0.019c-4.211,5.328-8.46,10.63-12.772,15.892c-2.8-6.04-5.526-12.091-8.203-18.15
	c0.089-0.041,0.176-0.067,0.265-0.108c-1.144-11.812-8.413-17.402-11.792-26.986c27.414-3.631,37.486-33.585,36.668-57.164
	c2.455,17.434,11.594,33.007,30.426,38.234c19.873-30.716-4.514-64.235-23.108-86.917c-4.763,11.28-8.059,23.909-8.032,38.737
	c-0.421-3.563-1.227-7.676-1.784-9.827c-17.33,15.187-41.107,36.617-39.776,62.965c-6.886-17.522-13.275-35.155-19.173-52.921
	c37.178-7.474,33.941-63.893,33.941-63.893s-36.048,18.222-39.837,45.561c-3.742-12.187-7.354-24.351-10.677-36.642
	c26.28-6.225,26.697-49.941,23.545-62.907c-4.539,1.402-29.293,25.758-29.496,39.954c-2.323-8.811-0.773-19.28-6.107-26.217
	c-1.879-8.558-3.654-17.155-5.327-25.794c20.929-2.589,24.605-36.04,23.241-46.38c-4.38,1.031-25.98,18.861-26.179,30.643
	c-2.177-13.769-4.69-27.339-6.526-41.231c18.071-8.015,18.922-32.797,17.303-44.961c-6.616,3.861-16.84,13.416-20.243,22.121
	c-0.347-2.932-0.681-5.872-1.006-8.816c10.057-14.992-0.337-33.326-7.22-45.575c-8.841,12.806-14.025,40.107,5.303,48.173
	c0.116-0.139,0.211-0.279,0.323-0.419c0.171,3.926,1.516,7.944,0.942,11.804c-6.052-10.713-22.422-16.88-32.758-17.945
	c5.366,14.248,14.697,35.305,35.147,33.574c0.032,0.041,0.062,0.083,0.095,0.124c1.044,7.609,2.161,15.182,3.355,22.723
	c-3.378-8.023-26.607-17.76-28.892-17.297c1.474,10.596,12.745,36.042,31.673,33.953c2.426,13.917,5.109,27.724,8.059,41.427
	c-8.28-10.965-26.427-20.213-37.379-24.068c2.147,20.855,15.065,53.603,43.439,50.53c2.769,8.137,1.566,16.039,6.125,24.02
	c1.246,4.646,2.522,9.281,3.831,13.906c-10.728-15.593-36.14-22.959-52.026-25.945c5.812,22.553,28.659,56.177,57.84,45.748
	c3.418,8.164,2.826,15.814,6.323,24.355c0.47-0.055,0.905-0.154,1.362-0.225c2.989,9.01,6.105,17.985,9.346,26.929
	c-11.748-15.671-38.618-21.932-55.202-24.231c7.145,23.11,32.897,56.688,62.487,43.72c2.667,6.832,5.347,13.36,7.468,20.44
	c0.21-0.014,0.413-0.043,0.621-0.061c0.407,0.994,0.81,1.989,1.22,2.984c-13.557-12.787-39.885-17.404-55.806-18.14
	c9.652,22.721,35.391,55.163,66.305,42.737c2.886,6.535,5.836,13.058,8.865,19.567c-0.021,0.012-0.041,0.022-0.063,0.035
	c0,0-34.384-36.937-69.028-6.271c0,0,29.099,39.365,46.014,57.578h121.808c0,0-14.284-52.39-51.98-61.174
	c30.939-3.426,56.758-32.121,69.498-56.655c-22.442-0.26-51.334,1.626-73.271,13.021c10.435-14.349,20.526-28.919,30.257-43.707
	c33.628,20.869,69.653-13.299,83.379-40.843c-21.061-0.044-48.822,1.82-67.375,15.812c9.235-14.869,18.118-29.944,26.652-45.217
	c24.928,17.111,57.614-4.205,68.017-26.814c-19.716,1.35-44.1-3.36-60.143,12.496c7.906-14.641,15.494-29.458,22.755-44.448
	c-0.208,0.831-0.417,1.661-0.576,2.538c27.432,13.764,51.784-14.349,61.642-34.359
	C602.72,1297.57,599.175,1297.496,593.828,1297.898z M410.494,1538.551c4.97,3.048,10.026,5.064,15.077,6.232
	c-8.258,0.847-17.379,3.673-27.426,9.108C402.304,1548.806,406.427,1543.698,410.494,1538.551z"/>
<path style="fill:#BEDBFA;" d="M1142.045,1579.023c-10.099-6.423-22.209-9.119-34.181-9.456c5.608-4.869,9.907-11.067,14.117-17.201
	c-11.959-1.254-24.503,0.021-35.098,5.976c0.996-9.784-2.313-19.239-5.511-28.383c-9.345,10.241-16.376,23.357-16.267,37.47
	c-16.142-18.55-40.702-23.111-64.004-19.355c-1.402-15.624-9.455-30.656-22.406-39.51c-5.623,10.714-9.116,22.934-7.345,35.029
	c-37.179-23.131-95.209-13.429-108.987,31.859c-18.914,3.799-35.126,15.051-45.617,31.241h354.413
	C1163.487,1594.344,1154.312,1586.825,1142.045,1579.023z M1074.453,1570.333c-0.397,0.803-0.793,1.605-1.19,2.408
	c-0.067,0.012-0.133,0.023-0.2,0.035c0.049,0.024,0.098,0.048,0.147,0.072c-0.205,0.417-0.411,0.832-0.617,1.249
	c-0.447,0.088-0.893,0.178-1.339,0.264l3.06-4.03L1074.453,1570.333z M1085.901,1570.532c-1.151,0.201-2.302,0.403-3.454,0.604
	c0.146-0.215,0.281-0.437,0.42-0.657L1085.901,1570.532z"/>
<g>
	<path style="fill:#BEDBFA;" d="M1112.449,694.754H893.864c6.721-14.09,18.71-25.006,34.175-27.136
		c18.919-40.689,80.093-44.732,104.208-6.901c17.724-7.728,33.539,9.005,42.572,22.695c5.882-7.23,15.982-10.748,25.083-8.737
		C1109.004,676.686,1110.161,685.718,1112.449,694.754z"/>
	<path style="fill:#BEDBFA;" d="M2051.877,726.576h-227.162c8.697-18.324,28.089-27.798,48.109-24.542
		c3.909-38.405,75.863-37.36,91.972-9.487c14.463-11.029,39.27-1.111,42.141,16.85
		C2026.372,701.315,2048.076,701.175,2051.877,726.576z"/>
	<path style="fill:#BEDBFA;" d="M1625.757,377.907h-126.816c3.208-8.785,11.071-17.121,21.082-15.467
		c2.504-24.058,50.635-27.897,60.356-5.904c11.093-8.551,28.366,0.703,27.396,14.673
		C1613.315,367.678,1622.644,372.122,1625.757,377.907z"/>
</g>
<g>
	<g>
		<rect x="976.631" y="1074.854" style="fill:#DCECFD;" width="20.243" height="129.548"/>
		<rect x="1009.238" y="1074.854" style="fill:#DCECFD;" width="20.243" height="129.548"/>
		<rect x="1041.846" y="1074.854" style="fill:#DCECFD;" width="20.243" height="129.548"/>
	</g>
	<g>
		<g>
			<g>
				<rect x="631.825" y="791.786" style="fill:#DCECFD;" width="23.149" height="28.202"/>
				<rect x="677.601" y="791.786" style="fill:#DCECFD;" width="23.149" height="28.202"/>
				<rect x="723.377" y="791.786" style="fill:#DCECFD;" width="23.149" height="28.202"/>
			</g>
			<g>
				<rect x="631.825" y="844.018" style="fill:#DCECFD;" width="23.149" height="28.202"/>
				<rect x="723.377" y="844.018" style="fill:#DCECFD;" width="23.149" height="28.202"/>
				<rect x="769.152" y="844.018" style="fill:#DCECFD;" width="23.149" height="28.202"/>
			</g>
			<g>
				<rect x="631.825" y="896.251" style="fill:#DCECFD;" width="23.149" height="28.202"/>
				<rect x="677.601" y="896.251" style="fill:#DCECFD;" width="23.149" height="28.202"/>
				<rect x="723.377" y="896.251" style="fill:#DCECFD;" width="23.149" height="28.202"/>
				<rect x="769.152" y="896.251" style="fill:#DCECFD;" width="23.149" height="28.202"/>
			</g>
			<g>
				<rect x="631.825" y="948.483" style="fill:#DCECFD;" width="23.149" height="28.202"/>
				<rect x="677.601" y="948.483" style="fill:#DCECFD;" width="23.149" height="28.202"/>
				<rect x="769.152" y="948.483" style="fill:#DCECFD;" width="23.149" height="28.202"/>
			</g>
			<g>
				<rect x="631.825" y="1000.715" style="fill:#DCECFD;" width="23.149" height="28.202"/>
				<rect x="677.601" y="1000.715" style="fill:#DCECFD;" width="23.149" height="28.202"/>
				<rect x="723.377" y="1000.715" style="fill:#DCECFD;" width="23.149" height="28.202"/>
				<rect x="769.152" y="1000.715" style="fill:#DCECFD;" width="23.149" height="28.202"/>
			</g>
		</g>
		<g>
			<g>
				<rect x="1084.908" y="913.695" style="fill:#DCECFD;" width="27.151" height="27.151"/>
				<rect x="1150.911" y="913.695" style="fill:#DCECFD;" width="27.151" height="27.151"/>
				<rect x="1216.913" y="913.695" style="fill:#DCECFD;" width="27.151" height="27.151"/>
			</g>
			<g>
				<rect x="1084.908" y="966.006" style="fill:#DCECFD;" width="27.151" height="27.151"/>
				<rect x="1150.911" y="966.006" style="fill:#DCECFD;" width="27.151" height="27.151"/>
				<rect x="1216.913" y="966.006" style="fill:#DCECFD;" width="27.151" height="27.151"/>
			</g>
			<g>
				<rect x="1084.908" y="1018.317" style="fill:#DCECFD;" width="27.151" height="27.151"/>
				<rect x="1150.911" y="1018.317" style="fill:#DCECFD;" width="27.151" height="27.151"/>
				<rect x="1216.913" y="1018.317" style="fill:#DCECFD;" width="27.151" height="27.151"/>
			</g>
			<g>
				<rect x="1084.908" y="1070.627" style="fill:#DCECFD;" width="27.151" height="27.151"/>
				<rect x="1150.911" y="1070.627" style="fill:#DCECFD;" width="27.151" height="27.151"/>
				<rect x="1216.913" y="1070.627" style="fill:#DCECFD;" width="27.151" height="27.151"/>
			</g>
			<g>
				<rect x="1084.908" y="1122.938" style="fill:#DCECFD;" width="27.151" height="27.151"/>
				<rect x="1150.911" y="1122.938" style="fill:#DCECFD;" width="27.151" height="27.151"/>
				<rect x="1216.913" y="1122.938" style="fill:#DCECFD;" width="27.151" height="27.151"/>
			</g>
		</g>
		<g>
			<g>
				<rect x="2364.073" y="902.001" style="fill:#DCECFD;" width="27.151" height="27.151"/>
				<rect x="2430.076" y="902.001" style="fill:#DCECFD;" width="27.151" height="27.151"/>
			</g>
			<g>
				<rect x="2298.07" y="954.311" style="fill:#DCECFD;" width="27.151" height="27.151"/>
				<rect x="2364.073" y="954.311" style="fill:#DCECFD;" width="27.151" height="27.151"/>
			</g>
			<g>
				<rect x="2298.07" y="1006.622" style="fill:#DCECFD;" width="27.151" height="27.151"/>
				<rect x="2364.073" y="1006.622" style="fill:#DCECFD;" width="27.151" height="27.151"/>
				<rect x="2430.076" y="1006.622" style="fill:#DCECFD;" width="27.151" height="27.151"/>
			</g>
			<g>
				<rect x="2364.073" y="1058.933" style="fill:#DCECFD;" width="27.151" height="27.151"/>
				<rect x="2430.076" y="1058.933" style="fill:#DCECFD;" width="27.151" height="27.151"/>
			</g>
			<g>
				<rect x="2298.07" y="1111.243" style="fill:#DCECFD;" width="27.151" height="27.151"/>
				<rect x="2364.073" y="1111.243" style="fill:#DCECFD;" width="27.151" height="27.151"/>
			</g>
		</g>
		<g>
			<g>
				<rect x="1743.757" y="934.87" style="fill:#DCECFD;" width="21.195" height="20.439"/>
				<rect x="1857.456" y="934.87" style="fill:#DCECFD;" width="21.195" height="20.439"/>
			</g>
			<g>
				<rect x="1743.757" y="972.424" style="fill:#DCECFD;" width="21.195" height="20.439"/>
				<rect x="1800.606" y="972.424" style="fill:#DCECFD;" width="21.195" height="20.439"/>
				<rect x="1857.456" y="972.424" style="fill:#DCECFD;" width="21.195" height="20.439"/>
			</g>
			<g>
				<rect x="1743.757" y="1009.978" style="fill:#DCECFD;" width="21.195" height="20.439"/>
				<rect x="1800.606" y="1009.978" style="fill:#DCECFD;" width="21.195" height="20.439"/>
			</g>
			<g>
				<rect x="1800.606" y="1047.532" style="fill:#DCECFD;" width="21.195" height="20.439"/>
				<rect x="1857.456" y="1047.532" style="fill:#DCECFD;" width="21.195" height="20.439"/>
			</g>
			<g>
				<rect x="1743.757" y="1085.086" style="fill:#DCECFD;" width="21.195" height="20.439"/>
				<rect x="1800.606" y="1085.086" style="fill:#DCECFD;" width="21.195" height="20.439"/>
			</g>
			<g>
				<rect x="1743.757" y="1122.64" style="fill:#DCECFD;" width="21.195" height="20.439"/>
				<rect x="1857.456" y="1122.64" style="fill:#DCECFD;" width="21.195" height="20.439"/>
			</g>
		</g>
	</g>
</g>
<path style="fill:#324D90;" d="M270.879,1606.693c876.708-8.322,1766.383-8.406,2643.075-0.002
	C2037.267,1615.099,1147.584,1615.016,270.879,1606.693L270.879,1606.693z"/>
</svg>
