<?xml version="1.0" encoding="utf-8"?>
<!-- Generator: Adobe Illustrator 27.5.0, SVG Export Plug-In . SVG Version: 6.00 Build 0)  -->
<svg version="1.1" xmlns="http://www.w3.org/2000/svg" xmlns:xlink="http://www.w3.org/1999/xlink" x="0px" y="0px"
	 viewBox="0 0 500 500" style="enable-background:new 0 0 500 500;" xml:space="preserve">
<g id="BACKGROUND">
	<rect style="fill:#F3DCD4;" width="500" height="500"/>
</g>
<g id="OBJECTS">
	<g>
		<defs>
			<rect id="SVGID_1_" width="500" height="500"/>
		</defs>
		<clipPath id="SVGID_00000069384516806708976570000014868848823546194561_">
			<use xlink:href="#SVGID_1_"  style="overflow:visible;"/>
		</clipPath>
		<g style="clip-path:url(#SVGID_00000069384516806708976570000014868848823546194561_);">
			<g>
				<g>
					<path style="fill:#E3977C;" d="M467.165,292.453c0,0-20.07-24.092-14.344-40.648c5.058-14.626,22.399-9.697,22.844,2.897
						C476.11,267.295,467.165,292.453,467.165,292.453z"/>
					<path style="fill:none;stroke:#A04448;stroke-linecap:round;stroke-linejoin:round;stroke-miterlimit:10;" d="M467.551,292.153
						c-3.126-8.074-4.558-16.798-4.174-25.433"/>
				</g>
				<g>
					<path style="fill:#E3977C;" d="M455.816,312.974c0,0-27.438-15-28.199-32.554c-0.672-15.508,17.211-17.352,22.24-5.781
						C454.886,286.21,455.816,312.974,455.816,312.974z"/>
					<path style="fill:none;stroke:#A04448;stroke-linecap:round;stroke-linejoin:round;stroke-miterlimit:10;" d="M455.689,312.681
						c-4.955-6.402-8.357-14.008-9.83-21.97"/>
				</g>
				<g>
					<path style="fill:#E3977C;" d="M447.651,335.654c0,0-30.46-6.715-36.063-23.388c-4.95-14.729,11.677-21.531,19.709-11.814
						C439.328,310.169,447.651,335.654,447.651,335.654z"/>
					<path style="fill:none;stroke:#A04448;stroke-linecap:round;stroke-linejoin:round;stroke-miterlimit:10;" d="M447.467,334.959
						c-8.012-5.737-14.886-13.085-20.093-21.478"/>
				</g>
				<g>
					<path style="fill:#E3977C;" d="M440.616,361.33c0,0-31.114-1.502-39.403-17.015c-7.323-13.705,7.921-23.217,17.446-14.978
						C428.185,337.576,440.616,361.33,440.616,361.33z"/>
					<path style="fill:none;stroke:#A04448;stroke-linecap:round;stroke-linejoin:round;stroke-miterlimit:10;" d="M440.176,361.355
						c-6.47-3.861-12.536-8.411-18.064-13.548"/>
				</g>
				<g>
					<path style="fill:#E3977C;" d="M439.125,385.47c0,0-30.873,3.897-41.677-9.971c-9.545-12.251,3.832-24.267,14.611-17.788
						C422.837,364.191,439.125,385.47,439.125,385.47z"/>
					<path style="fill:none;stroke:#A04448;stroke-linecap:round;stroke-linejoin:round;stroke-miterlimit:10;" d="M438.61,385.503
						c-6.742-1.368-13.027-4.987-17.627-10.15"/>
				</g>
				<g>
					<path style="fill:#E3977C;" d="M437.098,376.224c0,0,29.135,11.256,42.776,0.386c12.051-9.603,1.764-24.521-10.182-20.828
						C457.747,359.474,437.098,376.224,437.098,376.224z"/>
					<path style="fill:none;stroke:#A04448;stroke-linecap:round;stroke-linejoin:round;stroke-miterlimit:10;" d="M437.65,376.339
						c8.644-0.633,17.157-2.903,24.96-6.656"/>
				</g>
				<g>
					<path style="fill:#E3977C;" d="M446.359,339.211c0,0,26.33,16.905,41.882,9.031c13.739-6.956,6.628-23.631-5.827-22.435
						C469.959,327.003,446.359,339.211,446.359,339.211z"/>
					<path style="fill:none;stroke:#A04448;stroke-linecap:round;stroke-linejoin:round;stroke-miterlimit:10;" d="M446.954,338.793
						c8.451,2.156,17.392,2.291,25.877,0.392"/>
				</g>
				<g>
					<path style="fill:#E3977C;" d="M456.218,314.353c0,0,27.323,15.214,42.346,6.37c13.272-7.814,5.138-24.013-7.213-22.032
						C479,300.672,456.218,314.353,456.218,314.353z"/>
					<path style="fill:none;stroke:#A04448;stroke-linecap:round;stroke-linejoin:round;stroke-miterlimit:10;" d="M455.961,313.919
						c7.914,1.555,16.196,1.106,23.872-1.293"/>
				</g>
				<g>
					<path style="fill:#E3977C;" d="M468.25,289.878c0,0,28.812,12.079,42.756,1.604c12.319-9.254,2.453-24.456-9.594-21.106
						C489.365,273.727,468.25,289.878,468.25,289.878z"/>
					<path style="fill:none;stroke:#A04448;stroke-linecap:round;stroke-linejoin:round;stroke-miterlimit:10;" d="M468.59,289.996
						c9.395,0.348,18.849-1.526,27.386-5.428"/>
				</g>
				<g>
					<path style="fill:#E3977C;" d="M477.768,276.248c0,0,2.715-29.42,17.981-35.713c13.486-5.56,22.017,9.901,13.7,18.113
						C501.132,266.859,477.768,276.248,477.768,276.248z"/>
					<path style="fill:none;stroke:#A04448;stroke-linecap:round;stroke-linejoin:round;stroke-miterlimit:10;" d="M435.974,414.036
						c-2.208-54.819,17.008-110.086,52.63-151.367"/>
				</g>
			</g>
			<g>
				<g>
					<path style="fill:#E3977C;" d="M15.867,450.489c0,0-1.531-29.805-16.228-37.68c-12.983-6.957-21.921,7.69-14.098,16.78
						C-6.635,438.68,15.867,450.489,15.867,450.489z"/>
					<path style="fill:none;stroke:#A04448;stroke-linecap:round;stroke-linejoin:round;stroke-miterlimit:10;" d="M15.403,450.528
						c-3.03-7.663-7.664-14.687-13.509-20.475"/>
				</g>
				<g>
					<path style="fill:#E3977C;" d="M37.055,457.504c0,0,9.492-28.208-1.314-40.971c-9.546-11.275-23.239-1.013-19.281,10.324
						C20.418,438.193,37.055,457.504,37.055,457.504z"/>
					<path style="fill:none;stroke:#A04448;stroke-linecap:round;stroke-linejoin:round;stroke-miterlimit:10;" d="M36.955,457.216
						c-0.672-7.676-3.206-15.19-7.319-21.707"/>
				</g>
				<g>
					<path style="fill:#E3977C;" d="M57.412,468.084c0,0,16.955-24.369,10.103-39.643c-6.054-13.493-22.07-7.509-21.408,4.471
						C46.768,444.893,57.412,468.084,57.412,468.084z"/>
					<path style="fill:none;stroke:#A04448;stroke-linecap:round;stroke-linejoin:round;stroke-miterlimit:10;" d="M57.091,467.48
						c1.895-9.186,1.954-18.762,0.173-27.992"/>
				</g>
				<g>
					<path style="fill:#E3977C;" d="M78.913,481.488c0,0,20.78-21.146,16.554-37.344c-3.733-14.31-20.533-11.114-21.87,0.798
						C72.261,456.854,78.913,481.488,78.913,481.488z"/>
					<path style="fill:none;stroke:#A04448;stroke-linecap:round;stroke-linejoin:round;stroke-miterlimit:10;" d="M79.237,481.221
						c2.029-6.878,3.331-13.977,3.877-21.139"/>
				</g>
				<g>
					<path style="fill:#E3977C;" d="M95.548,497.4c0,0,24.098-17.217,22.694-33.889c-1.241-14.729-18.353-14.489-21.703-2.997
						C93.19,472.005,95.548,497.4,95.548,497.4z"/>
					<path style="fill:none;stroke:#A04448;stroke-linecap:round;stroke-linejoin:round;stroke-miterlimit:10;" d="M95.93,497.091
						c3.829-5.311,5.885-11.9,5.766-18.481"/>
				</g>
				<g>
					<path style="fill:#E3977C;" d="M90.993,489.628c0,0-13.097,26.687-29.653,27.899c-14.627,1.071-17.071-16.002-6.335-21.136
						C65.74,491.256,90.993,489.628,90.993,489.628z"/>
					<path style="fill:none;stroke:#A04448;stroke-linecap:round;stroke-linejoin:round;stroke-miterlimit:10;" d="M90.681,490.065
						c-6.452,5.141-13.868,9.052-21.747,11.47"/>
				</g>
				<g>
					<path style="fill:#E3977C;" d="M60.613,469.736c0,0-7.487,28.824-23.445,33.365c-14.097,4.012-19.897-12.238-10.418-19.447
						C36.23,476.445,60.613,469.736,60.613,469.736z"/>
					<path style="fill:none;stroke:#A04448;stroke-linecap:round;stroke-linejoin:round;stroke-miterlimit:10;" d="M59.926,469.828
						c-4.515,6.966-10.677,12.835-17.836,16.988"/>
				</g>
				<g>
					<path style="fill:#E3977C;" d="M37.665,458.727c0,0-9.273,28.283-25.488,31.804c-14.325,3.111-19.101-13.468-9.188-20.06
						C12.902,463.879,37.665,458.727,37.665,458.727z"/>
					<path style="fill:none;stroke:#A04448;stroke-linecap:round;stroke-linejoin:round;stroke-miterlimit:10;" d="M37.564,458.257
						c-4.527,6.199-10.607,11.234-17.523,14.515"/>
				</g>
				<g>
					<path style="fill:#E3977C;" d="M13.445,449.389c0,0-12.339,27.054-28.852,28.738c-14.588,1.488-17.511-15.511-6.926-20.951
						C-11.748,451.737,13.445,449.389,13.445,449.389z"/>
					<path style="fill:none;stroke:#A04448;stroke-linecap:round;stroke-linejoin:round;stroke-miterlimit:10;" d="M13.284,449.692
						c-6.343,6.311-14.162,11.108-22.65,13.895"/>
				</g>
				<g>
					<path style="fill:#E3977C;" d="M-2.012,446.009c0,0-20.9-18.812-35.637-13.351c-13.019,4.824-8.996,21.142,2.122,21.511
						C-24.409,454.537-2.012,446.009-2.012,446.009z"/>
					<path style="fill:none;stroke:#A04448;stroke-linecap:round;stroke-linejoin:round;stroke-miterlimit:10;" d="M116.202,515.334
						c-33.865-39.747-82.994-65.969-134.559-71.818"/>
				</g>
			</g>
			<g>
				<g>
					<path style="fill:#8DB691;" d="M36.841,260.213c-7.265,5.67-12.467,13.927-14.445,22.928c-1.978,9.001-0.718,18.678,3.5,26.872
						c7.438-4.749,11.959-13.482,12.725-22.273C39.388,278.948,38.752,268.828,36.841,260.213z"/>
					<path style="fill:none;stroke:#B5D0B5;stroke-linecap:round;stroke-linejoin:round;stroke-miterlimit:10;" d="M30.075,285.125
						c-1.581,7.99-2.641,16.084-3.17,24.212"/>
				</g>
				<g>
					<path style="fill:#8DB691;" d="M23.386,306.251c-5.712-6.164-14.256-9.181-22.654-9.502c-8.398-0.321-16.71,1.82-24.613,4.678
						C-12.434,311.034,10.227,313.332,23.386,306.251z"/>
					<path style="fill:none;stroke:#B5D0B5;stroke-linecap:round;stroke-linejoin:round;stroke-miterlimit:10;" d="M-2.19,303.172
						c8.486,0.013,16.969,1.168,25.149,3.426"/>
				</g>
				<g>
					<path style="fill:#8DB691;" d="M41.335,330.471c-7.043-7.749-17.319-12.463-27.786-12.75
						c-10.468-0.286-20.985,3.86-28.442,11.211C0.529,338.949,25.019,338.953,41.335,330.471z"/>
					<path style="fill:none;stroke:#B5D0B5;stroke-linecap:round;stroke-linejoin:round;stroke-miterlimit:10;" d="M10.782,328.316
						c9.951-1.371,20.177-0.723,29.875,1.895"/>
				</g>
				<g>
					<path style="fill:#8DB691;" d="M67.691,270.525c-11.308,4.874-20.573,14.306-25.245,25.699
						c-4.672,11.393-4.696,24.614-0.066,36.024C57.586,317.738,68.393,291.531,67.691,270.525z"/>
					<path style="fill:none;stroke:#B5D0B5;stroke-linecap:round;stroke-linejoin:round;stroke-miterlimit:10;" d="M50.376,299.745
						c-3.408,10.255-6.08,20.755-7.99,31.391"/>
				</g>
				<g>
					<path style="fill:#8DB691;" d="M94.394,289.362c-12.896,0.937-24.024,10.158-30.666,21.251
						c-6.643,11.093-9.56,23.956-12.381,36.574C72.223,334.774,91.044,313.418,94.394,289.362z"/>
					<path style="fill:none;stroke:#B5D0B5;stroke-linecap:round;stroke-linejoin:round;stroke-miterlimit:10;" d="M68.205,321.842
						c-6.426,7.396-12.049,15.489-16.739,24.091"/>
				</g>
				<g>
					<path style="fill:#8DB691;" d="M54.858,351.961c-9.699-6.317-21.639-9.115-33.135-7.764
						c-11.496,1.351-22.462,6.84-30.433,15.233c9.162,5.014,20.669,6.186,31.046,4.997
						C32.712,363.236,47.068,358.918,54.858,351.961z"/>
					<path style="fill:none;stroke:#B5D0B5;stroke-linecap:round;stroke-linejoin:round;stroke-miterlimit:10;" d="M20.065,354.154
						c11.233-3.624,23.491-4.008,34.929-1.093"/>
				</g>
				<g>
					<path style="fill:#8DB691;" d="M65.91,373.129c2.478-11.985,5.052-24.224,11.318-34.737
						c6.266-10.513,17.022-19.165,29.255-19.56c0.041,11.378-3.479,21.997-10.062,31.277
						C89.837,359.388,76.662,369.408,65.91,373.129z"/>
					<path style="fill:none;stroke:#B5D0B5;stroke-linecap:round;stroke-linejoin:round;stroke-miterlimit:10;" d="M87.796,341.45
						c-6.318,11.126-13.359,21.841-21.063,32.055"/>
				</g>
				<g>
					<path style="fill:#8DB691;" d="M111.975,354.366c-11.22,2.786-21.287,9.968-27.573,19.671
						c-6.286,9.703-8.726,21.826-6.682,33.205C97.019,397.886,108.155,375.471,111.975,354.366z"/>
					<path style="fill:none;stroke:#B5D0B5;stroke-linecap:round;stroke-linejoin:round;stroke-miterlimit:10;" d="M93.686,376.497
						c-7.063,8.662-12.418,18.712-15.668,29.406"/>
				</g>
				<g>
					<path style="fill:#8DB691;" d="M71.559,387.084c-7.754-8.149-18.593-13.289-29.81-14.135
						c-11.216-0.847-22.704,2.608-31.594,9.501C27.426,394.991,51.826,395.219,71.559,387.084z"/>
					<path style="fill:none;stroke:#B5D0B5;stroke-linecap:round;stroke-linejoin:round;stroke-miterlimit:10;" d="M37.272,382.156
						c10.91-2.271,22.633-0.379,32.275,5.207"/>
				</g>
				<g>
					<path style="fill:#8DB691;" d="M81.348,419.464c-6.146-9.65-16.464-16.54-27.733-18.519
						c-11.269-1.979-23.317,0.982-32.384,7.961C35.845,423.208,62.731,427.922,81.348,419.464z"/>
					<path style="fill:none;stroke:#B5D0B5;stroke-linecap:round;stroke-linejoin:round;stroke-miterlimit:10;" d="M46.754,411.953
						c11.44-0.643,23.043,1.903,33.162,7.278"/>
				</g>
				<g>
					<path style="fill:#8DB691;" d="M-28.168,253.043c10.899-0.629,21.99,3.444,29.891,10.977
						c7.902,7.533,12.499,18.417,12.391,29.334C-5.632,290.08-23.493,272.506-28.168,253.043z"/>
					<path style="fill:none;stroke:#B5D0B5;stroke-linecap:round;stroke-linejoin:round;stroke-miterlimit:10;" d="M86.047,464.607
						c-1.12-64.848-33.49-133.773-87.946-187.262"/>
				</g>
			</g>
			<g>
				<g>
					<path style="fill:#8DB691;" d="M529.186,372.511c4.045,8.204,5.13,17.83,3.013,26.729c-2.118,8.899-7.422,17.004-14.729,22.507
						c-4.598-7.456-4.869-17.213-1.758-25.401C518.822,388.157,523.759,379.386,529.186,372.511z"/>
					<path style="fill:none;stroke:#B5D0B5;stroke-linecap:round;stroke-linejoin:round;stroke-miterlimit:10;" d="M524.479,397.698
						c-2.036,7.824-4.583,15.515-7.619,23.008"/>
				</g>
				<g>
					<path style="fill:#8DB691;" d="M521.337,419.467c7.766-3.044,16.706-2.051,24.35,1.288c7.644,3.339,14.149,8.841,19.978,14.807
						C551.288,439.206,530.042,431.477,521.337,419.467z"/>
					<path style="fill:none;stroke:#B5D0B5;stroke-linecap:round;stroke-linejoin:round;stroke-miterlimit:10;" d="M545.525,427.757
						c-7.59-3.652-15.671-6.282-23.957-7.795"/>
				</g>
				<g>
					<path style="fill:#8DB691;" d="M494.839,433.366c9.641-3.885,20.86-3.663,30.339,0.6c9.479,4.263,17.09,12.509,20.581,22.299
						C527.65,458.56,505.759,447.991,494.839,433.366z"/>
					<path style="fill:none;stroke:#B5D0B5;stroke-linecap:round;stroke-linejoin:round;stroke-miterlimit:10;" d="M523.077,444.63
						c-8.302-5.521-17.722-9.356-27.52-11.204"/>
				</g>
				<g>
					<path style="fill:#8DB691;" d="M497.162,368.409c8.002,9.238,12.211,21.668,11.468,33.868
						c-0.743,12.2-6.429,24.027-15.493,32.226C485.811,414.97,487.466,386.881,497.162,368.409z"/>
					<path style="fill:none;stroke:#B5D0B5;stroke-linecap:round;stroke-linejoin:round;stroke-miterlimit:10;" d="M500.023,402.001
						c-1.381,10.637-3.525,21.175-6.41,31.507"/>
				</g>
				<g>
					<path style="fill:#8DB691;" d="M465.163,373.717c11.121,6.405,17.086,19.451,18.234,32.233
						c1.148,12.782-1.798,25.538-4.724,38.034C465.373,423.877,457.772,396.664,465.163,373.717z"/>
					<path style="fill:none;stroke:#B5D0B5;stroke-linecap:round;stroke-linejoin:round;stroke-miterlimit:10;" d="M474.548,414.053
						c2.55,9.385,4.082,19.046,4.561,28.759"/>
				</g>
				<g>
					<path style="fill:#8DB691;" d="M473.475,446.735c11.396-1.459,23.275,1.195,32.967,7.365
						c9.692,6.17,17.123,15.81,20.624,26.753c-10.354,0.525-21.145-3.394-29.905-8.937
						C488.4,466.373,477.434,456.316,473.475,446.735z"/>
					<path style="fill:none;stroke:#B5D0B5;stroke-linecap:round;stroke-linejoin:round;stroke-miterlimit:10;" d="M503.625,463.716
						c-8.475-8.089-19.266-13.724-30.747-16.056"/>
				</g>
				<g>
					<path style="fill:#8DB691;" d="M454.458,460.883c2.96-11.782,5.943-23.832,4.881-35.933
						c-1.062-12.101-6.941-24.478-17.703-30.112c-4.949,10.151-6.387,21.162-4.509,32.298
						C439.005,438.272,446.455,452.916,454.458,460.883z"/>
					<path style="fill:none;stroke:#B5D0B5;stroke-linecap:round;stroke-linejoin:round;stroke-miterlimit:10;" d="M448.573,423.121
						c0.844,12.671,2.51,25.288,4.987,37.743"/>
				</g>
				<g>
					<path style="fill:#8DB691;" d="M421.386,424.227c8.826,7.334,14.723,18.099,16.152,29.486
						c1.429,11.386-1.624,23.275-8.363,32.563C415.966,469.58,415.69,444.739,421.386,424.227z"/>
					<path style="fill:none;stroke:#B5D0B5;stroke-linecap:round;stroke-linejoin:round;stroke-miterlimit:10;" d="M428.178,451.903
						c2.573,10.791,3.021,22.085,1.309,33.046"/>
				</g>
				<g>
					<path style="fill:#8DB691;" d="M443.385,470.917c10.448-3.936,22.355-3.85,32.746,0.235
						c10.391,4.086,19.167,12.133,24.136,22.131C479.416,497.037,457.51,486.708,443.385,470.917z"/>
					<path style="fill:none;stroke:#B5D0B5;stroke-linecap:round;stroke-linejoin:round;stroke-miterlimit:10;" d="M476.157,481.315
						c-8.771-6.739-20.065-10.11-31.095-9.28"/>
				</g>
				<g>
					<path style="fill:#8DB691;" d="M420.657,495.632c9.66-5.972,21.856-7.676,32.782-4.579
						c10.926,3.096,20.416,10.944,25.507,21.095C459.71,518.622,433.644,511.229,420.657,495.632z"/>
					<path style="fill:none;stroke:#B5D0B5;stroke-linecap:round;stroke-linejoin:round;stroke-miterlimit:10;" d="M454.818,503.854
						c-9.947-5.514-21.417-8.247-32.781-7.812"/>
				</g>
				<g>
					<path style="fill:#8DB691;" d="M590.385,394.168c-9.47-5.267-21.141-6.415-31.455-3.093
						c-10.315,3.322-19.123,11.065-23.739,20.869C554.254,417.541,577.805,409.545,590.385,394.168z"/>
					<path style="fill:none;stroke:#B5D0B5;stroke-linecap:round;stroke-linejoin:round;stroke-miterlimit:10;" d="M396.968,533.951
						c28.996-57.476,87.685-105.106,159.448-129.403"/>
				</g>
			</g>
		</g>
	</g>
	<g>
		<path style="fill:#F7E9E0;" d="M241.194,376.637c-47.494-20.415-111.12-51.852-145.424-90.033
			c-34.305-38.181-56.307-88.739-51.779-138.876C48.519,97.591,82.89,49.588,132.253,35.74
			c49.363-13.849,105.432,13.112,132.805,64.691c12.15-38.549,62.169-61.391,103.05-53.959
			c40.881,7.432,74.305,41.405,85.669,80.551c11.364,39.146,2.519,81.972-18.458,116.594c-20.977,34.621-44.617,69.042-79.983,89.64
			C319.969,353.854,290.697,365.562,241.194,376.637z"/>
		<path style="fill:#E3977C;" d="M266.167,110.232c-3.097-5.432,4.549-11.977,9.928-9.098c5.379,2.879,6.615,10.845,4.179,16.476
			s-7.436,9.454-12.237,13.031c-5.541-2.144-11.31-4.444-15.349-8.994c-4.039-4.55-5.665-12.079-1.986-16.732
			C254.38,100.26,263.649,102.291,266.167,110.232z"/>
		<path style="fill:#E3977C;" d="M436.241,58.833c0.046-3.858,6.158-4.956,8.123-1.746c1.965,3.211,0.138,7.836-2.915,10.074
			c-3.053,2.237-6.908,2.713-10.579,3.118c-2.28-2.87-4.634-5.894-5.364-9.576c-0.73-3.682,0.753-8.197,4.163-9.526
			S437.378,53.82,436.241,58.833z"/>
		<path style="fill:#E3977C;" d="M68.259,58.965c-1.674-2.529,1.815-5.944,4.511-4.724c2.697,1.22,3.552,5.035,2.555,7.839
			c-0.997,2.804-3.294,4.816-5.502,6.702c-2.751-0.859-5.618-1.786-7.719-3.857c-2.102-2.072-3.132-5.663-1.502-8.035
			C62.232,54.519,66.784,55.203,68.259,58.965z"/>
		<g>
			<path style="fill:#FFFFFF;" d="M359.773,84.066c-1.325-0.579-2.678-1.02-4.05-1.324c-1.796-0.398-3.034-3.021-2.994-6.328
				c0.03-2.491-0.019-5.01-0.152-7.555c-0.492,2.458-0.912,4.947-1.259,7.452c-0.46,3.33-2.115,5.924-3.982,6.244
				c-1.404,0.24-2.81,0.616-4.21,1.127c1.32,0.632,2.671,1.118,4.051,1.453c1.789,0.434,3.01,3.086,2.948,6.394
				c-0.047,2.523-0.018,5.033,0.09,7.515c0.528-2.487,0.978-5.012,1.345-7.571c0.469-3.267,2.093-5.805,3.928-6.153
				C356.891,85.053,358.319,84.638,359.773,84.066z"/>
		</g>
		<g>
			<path style="fill:#FFFFFF;" d="M467.007,167.403c-1.325-0.579-2.678-1.02-4.05-1.324c-1.796-0.398-3.034-3.021-2.994-6.328
				c0.03-2.491-0.019-5.01-0.152-7.555c-0.492,2.458-0.912,4.947-1.259,7.452c-0.46,3.33-2.115,5.924-3.982,6.244
				c-1.404,0.24-2.81,0.616-4.21,1.127c1.32,0.632,2.671,1.118,4.051,1.453c1.789,0.434,3.01,3.086,2.948,6.394
				c-0.047,2.523-0.018,5.033,0.09,7.515c0.528-2.487,0.978-5.012,1.345-7.571c0.469-3.267,2.093-5.805,3.928-6.153
				C464.125,168.391,465.553,167.975,467.007,167.403z"/>
		</g>
		<g>
			<path style="fill:#FFFFFF;" d="M273.257,228.112c-1.413-0.307-2.826-0.474-4.231-0.503c-1.839-0.038-3.569-2.366-4.179-5.617
				c-0.46-2.449-1.003-4.909-1.634-7.378c0,2.507,0.078,5.03,0.23,7.554c0.203,3.355-0.91,6.224-2.678,6.905
				c-1.329,0.511-2.634,1.156-3.906,1.932c1.419,0.36,2.839,0.572,4.258,0.629c1.839,0.074,3.558,2.434,4.147,5.69
				c0.45,2.483,0.972,4.939,1.565,7.351c0.029-2.543-0.026-5.106-0.169-7.688c-0.182-3.296,0.911-6.104,2.642-6.805
				C270.625,229.646,271.944,228.958,273.257,228.112z"/>
		</g>
		<g>
			<path style="fill:#FFFFFF;" d="M179.257,49.385c-1.413-0.307-2.826-0.474-4.231-0.503c-1.839-0.038-3.569-2.366-4.179-5.617
				c-0.46-2.449-1.003-4.909-1.634-7.378c0,2.507,0.078,5.03,0.23,7.554c0.203,3.355-0.91,6.224-2.678,6.905
				c-1.329,0.511-2.634,1.156-3.906,1.932c1.419,0.36,2.839,0.572,4.258,0.629c1.839,0.073,3.558,2.434,4.147,5.69
				c0.45,2.483,0.972,4.939,1.565,7.351c0.029-2.542-0.026-5.106-0.169-7.688c-0.182-3.295,0.912-6.104,2.642-6.805
				C176.625,50.919,177.944,50.232,179.257,49.385z"/>
		</g>
		<g>
			<path style="fill:#FFFFFF;" d="M59.799,180.848c-1.413-0.307-2.826-0.474-4.231-0.503c-1.839-0.038-3.569-2.366-4.179-5.617
				c-0.46-2.449-1.003-4.909-1.634-7.378c0,2.507,0.078,5.03,0.23,7.554c0.203,3.355-0.91,6.224-2.678,6.905
				c-1.329,0.511-2.634,1.156-3.906,1.932c1.419,0.36,2.839,0.572,4.258,0.628c1.839,0.074,3.558,2.434,4.147,5.69
				c0.45,2.483,0.972,4.939,1.565,7.351c0.029-2.542-0.026-5.106-0.169-7.688c-0.182-3.296,0.911-6.104,2.642-6.805
				C57.167,182.382,58.486,181.695,59.799,180.848z"/>
		</g>
		<path style="fill:#FFFFFF;" d="M34.142,99.043c0-1.348,1.093-2.441,2.441-2.441c1.348,0,2.441,1.093,2.441,2.441
			c0,1.348-1.093,2.441-2.441,2.441C35.235,101.484,34.142,100.392,34.142,99.043z"/>
		<path style="fill:#FFFFFF;" d="M109.534,104.901c0-1.348,1.093-2.441,2.441-2.441c1.348,0,2.441,1.093,2.441,2.441
			c0,1.348-1.093,2.441-2.441,2.441C110.627,107.342,109.534,106.249,109.534,104.901z"/>
		<path style="fill:#FFFFFF;" d="M135.534,50.918c0-1.348,1.093-2.441,2.441-2.441c1.348,0,2.441,1.093,2.441,2.441
			c0,1.348-1.093,2.441-2.441,2.441C136.627,53.359,135.534,52.266,135.534,50.918z"/>
		<path style="fill:#FFFFFF;" d="M262.617,56.044c0-1.348,1.093-2.441,2.441-2.441c1.348,0,2.441,1.093,2.441,2.441
			c0,1.348-1.093,2.441-2.441,2.441C263.71,58.485,262.617,57.392,262.617,56.044z"/>
		<path style="fill:#FFFFFF;" d="M422.882,118.717c0-1.348,1.093-2.441,2.441-2.441c1.348,0,2.441,1.093,2.441,2.441
			c0,1.348-1.093,2.441-2.441,2.441C423.974,121.158,422.882,120.065,422.882,118.717z"/>
		<path style="fill:#FFFFFF;" d="M301.882,152.154c0-1.348,1.093-2.441,2.441-2.441c1.348,0,2.441,1.093,2.441,2.441
			c0,1.348-1.093,2.441-2.441,2.441C302.974,154.594,301.882,153.502,301.882,152.154z"/>
		<path style="fill:#FFFFFF;" d="M195.882,252.98c0-1.348,1.093-2.441,2.441-2.441c1.348,0,2.441,1.093,2.441,2.441
			c0,1.348-1.093,2.441-2.441,2.441C196.974,255.421,195.882,254.328,195.882,252.98z"/>
		<path style="fill:#FFFFFF;" d="M299.44,293.98c0-1.348,1.093-2.441,2.441-2.441c1.348,0,2.441,1.093,2.441,2.441
			c0,1.348-1.093,2.441-2.441,2.441C300.533,296.421,299.44,295.328,299.44,293.98z"/>
		<path style="fill:#FFFFFF;" d="M456.325,232.086c0-1.348,1.093-2.441,2.441-2.441c1.348,0,2.441,1.093,2.441,2.441
			c0,1.348-1.093,2.441-2.441,2.441C457.418,234.527,456.325,233.434,456.325,232.086z"/>
		<path style="fill:#FFFFFF;" d="M49.159,232.086c0-1.348,1.093-2.441,2.441-2.441c1.348,0,2.441,1.093,2.441,2.441
			c0,1.348-1.093,2.441-2.441,2.441C50.252,234.527,49.159,233.434,49.159,232.086z"/>
	</g>
	<g>
		<defs>
			<rect id="SVGID_00000152265396531282979070000007583389993763278519_" width="500" height="500"/>
		</defs>
		<clipPath id="SVGID_00000124151795618936501140000010404132028733778860_">
			<use xlink:href="#SVGID_00000152265396531282979070000007583389993763278519_"  style="overflow:visible;"/>
		</clipPath>
		<g style="clip-path:url(#SVGID_00000124151795618936501140000010404132028733778860_);">
			<g>
				<g>
					<path style="fill:#C58276;" d="M254.721,354.581c-14.766-4.694-27.808-14.626-36.36-28.038
						c-2.728-1.598-5.456-3.196-8.143-4.813c-1.553-0.934-2.347-2.723-2.075-4.515c0.717-4.731,0.573-9.593-0.434-14.271
						c-0.29-1.349-0.611-2.9,0.232-3.993c0.719-0.932,2.102-1.153,3.214-0.771c1.113,0.382,1.991,1.251,2.705,2.187
						c2.213,2.901,3.177,6.724,3.091,10.476l4.073,1.096c0.426-4.222,1.135-8.416,2.12-12.544
						c7.566,1.141,15.244,1.535,23.901,1.299c9.38,16.494,17.277,33.832,23.565,51.735
						C265.289,353.239,259.967,354.047,254.721,354.581z"/>
					<g>
						<g>
							<path style="fill:none;stroke:#FABF52;stroke-width:4;stroke-miterlimit:10;" d="M236.475,281.247
								c0-4.2-3.206-7.605-7.162-7.605c-3.955,0-7.162,3.405-7.162,7.605c0,4.2,3.207,7.605,7.162,7.605
								C233.269,288.852,236.475,285.447,236.475,281.247z"/>
							<path style="fill:#413F5A;" d="M247.465,293.479c0,0,0.404-5.071-2.825-7.086c-3.228-2.015-10.719-0.375-14.131-0.677
								c-3.412-0.302-10.928-0.935-13.839-0.168c-4.843,1.275-4.999,7.89-4.999,7.89L247.465,293.479z"/>
							<path style="fill:#B83E41;" d="M248.987,291.987l-0.328,11.511c0,0-25.608,3.953-37.978-1.044l0.327-12.007
								C211.007,290.447,223.215,293.685,248.987,291.987z"/>
						</g>
						<path style="fill:#B83E41;" d="M240.472,293.418c-1.274-10.227-0.788-20.738,1.975-30.55
							c4.304-0.929,8.787-0.736,13.398,0.734c2.189,0.698,3.784,2.5,4.125,4.662c1.086,6.882,0.86,14.04-0.636,20.866
							c-0.702,3.203-3.771,5.432-7.221,5.218C248.378,294.116,244.553,293.837,240.472,293.418z"/>
					</g>
					<g>
						<path style="fill:#C58276;" d="M284.889,332.453c0,0-15.788-33.328-19.937-38.134s-16.611-11.775-19.959-11.775
							c-2.514,0-7.479,4.119-6.992,7.828c0,0-7.555,1.736-6.165,9.259c0,0-7.53,2.341-7.148,10.281c0,0-4.852,3.73-3.521,8.67
							c1.331,4.94,10.397,13.73,14.066,16.604c3.669,2.874,31.833,16.203,31.833,16.203L284.889,332.453z"/>
						<path style="fill:none;stroke:#9F4249;stroke-linecap:round;stroke-linejoin:round;stroke-miterlimit:10;" d="
							M239.194,290.905c5.166,2.774,9.943,6.272,14.147,10.36"/>
						<path style="fill:none;stroke:#9F4249;stroke-linecap:round;stroke-linejoin:round;stroke-miterlimit:10;" d="
							M232.393,300.544c2.819,4.772,6.454,9.06,10.699,12.624"/>
						<path style="fill:none;stroke:#9F4249;stroke-linecap:round;stroke-linejoin:round;stroke-miterlimit:10;" d="M225.312,310.93
							c2.519,5.929,6.649,11.164,11.827,14.995"/>
					</g>
					<path style="fill:none;stroke:#9F4249;stroke-linecap:round;stroke-linejoin:round;stroke-miterlimit:10;" d="M265.735,350.82
						c-9.616-4.859-19.232-9.719-28.815-14.654c-1.525-0.785-2.917-1.806-4.14-3.009c-3.481-3.422-6.608-7.204-9.316-11.265
						c-1.242-1.864-2.433-3.905-2.48-6.145c-0.046-2.249,1.178-4.482,3.529-5.508c-0.417-1.729-0.01-3.637,1.077-5.045"/>
				</g>
				<g>
					<path style="fill:#413F5A;" d="M353.241,465.207c0,0-87.216-22.934-114.941-15.11l-3.269,80.075l243.332,7.757
						c0,0,7.209-44.642,2.449-62.389L353.241,465.207z"/>
					<g>
						<path style="fill:none;stroke:#2D2B48;stroke-linecap:round;stroke-linejoin:round;stroke-miterlimit:10;" d="
							M427.789,499.583c-14.363-4.567-28.857-9.161-43.856-10.635c-3.011-0.296-6.141-0.45-8.974,0.613
							c-2.833,1.063-5.301,3.644-5.329,6.669"/>
						<path style="fill:none;stroke:#2D2B48;stroke-linecap:round;stroke-linejoin:round;stroke-miterlimit:10;" d="
							M396.383,501.265c-7.785-2.581-15.947-4.017-23.52-4.555c-4.736-0.337-9.39,1.315-12.902,4.509
							c-12.323,11.208-23.982,23.146-34.896,35.73"/>
						<path style="fill:none;stroke:#2D2B48;stroke-linecap:round;stroke-linejoin:round;stroke-miterlimit:10;" d="
							M333.607,472.635c7.203,12.386,12.173,25.39,14.829,39.47"/>
						<path style="fill:none;stroke:#2D2B48;stroke-linecap:round;stroke-linejoin:round;stroke-miterlimit:10;" d="
							M322.039,494.108c8.512,6.177,16.081,13.653,22.362,22.089"/>
					</g>
				</g>
				<g>
					<path style="fill:#7F5FBA;" d="M368.903,276.659c5.719-2.389,23.585-4.912,34.26-3.642c3.225,0.579,7.583,5.145,13.893,18.209
						l23.902,11.669c3.277,1.6,6.246,3.81,8.556,6.632c18.07,22.071,20.412,77.736,30.9,138.125c2.828,1.931,4.959,9.565,2.87,12.71
						c20.806,43.455-101.887,32.226-139.113,3.501l-12.175-42.01c-20.454,19.14-45.486,39.294-59.787,5.452
						c-11.155-26.398-23.427-53.569-17.627-57.75l-4.411-15.335l14.52-1.466l19.192-23.031c5.209-1.11,12.488,7.348,20.183,13.992
						c13.762-31.568,15.215-39.361,33.136-41.703l4.499-8.392L368.903,276.659z"/>
					<g>
						<path style="fill:none;stroke:#4F304D;stroke-linecap:round;stroke-linejoin:round;stroke-miterlimit:10;" d="
							M370.037,298.962c8.386,5.655,15.9,12.6,22.67,20.622c9.546-7.749,17.699-17.209,23.957-27.793"/>
						<path style="fill:none;stroke:#4F304D;stroke-linecap:round;stroke-linejoin:round;stroke-miterlimit:10;" d="
							M355.263,315.586c-4.061-6.433-8.123-12.867-12.184-19.3"/>
						<path style="fill:none;stroke:#4F304D;stroke-linecap:round;stroke-linejoin:round;stroke-miterlimit:10;" d="
							M336.947,303.428c-1.811,4.653-3.622,9.306-4.894,14.052c6.335-2.962,12.148-5.923,18.483-8.885"/>
						<path style="fill:none;stroke:#4F304D;stroke-linecap:round;stroke-linejoin:round;stroke-miterlimit:10;" d="M357.404,319.2
							c-1.256,2.966-2.513,5.931-4.087,9.792c1.834,14.92,3.667,29.841,5.501,44.761"/>
						<path style="fill:none;stroke:#4F304D;stroke-linecap:round;stroke-linejoin:round;stroke-miterlimit:10;" d="
							M370.037,433.639c1.947,14.488,6.751,31.38,11.99,45.027"/>
						<path style="fill:none;stroke:#4F304D;stroke-linecap:round;stroke-linejoin:round;stroke-miterlimit:10;" d="M421.414,306.94
							c-8.241,4.789-16.599,9.669-23.195,16.548c-6.596,6.88-11.311,16.15-10.645,25.648c-9.55,9.653-19.955,18.46-31.136,27.297
							c-14.725-7.828-28.749-16.974-41.849-27.293c-2.951-2.324-6.278-4.844-10.018-4.493"/>
						<path style="fill:none;stroke:#4F304D;stroke-linecap:round;stroke-linejoin:round;stroke-miterlimit:10;" d="
							M279.907,370.319c9.416-7.012,17.559-15.727,23.918-25.596"/>
						<path style="fill:none;stroke:#4F304D;stroke-linecap:round;stroke-linejoin:round;stroke-miterlimit:10;" d="
							M357.488,377.612c6.284,7.931,9.142,18.487,7.716,28.504"/>
						<path style="fill:none;stroke:#4F304D;stroke-linecap:round;stroke-linejoin:round;stroke-miterlimit:10;" d="
							M364.053,375.932c6.413,1.874,11.972,6.494,14.988,12.455"/>
						<path style="fill:none;stroke:#4F304D;stroke-linecap:round;stroke-linejoin:round;stroke-miterlimit:10;" d="
							M393.112,345.131c9.835-6.528,21.409-10.41,33.191-11.134"/>
						<path style="fill:none;stroke:#4F304D;stroke-linecap:round;stroke-linejoin:round;stroke-miterlimit:10;" d="
							M390.797,349.532c11.986-3.211,24.927-2.763,36.663,1.268"/>
						<path style="fill:none;stroke:#4F304D;stroke-linecap:round;stroke-linejoin:round;stroke-miterlimit:10;" d="
							M266.309,354.742c2.814,6.38,7.386,11.974,13.316,16.174c-0.061,2.054,0.456,4.123,0.982,5.977
							c23.344,23.56,67.584,56.089,78.21,57.92c11.611,2.001,32.865-10.008,47.068-21.648c14.203-11.64,26.712-25.181,39.169-38.673
							"/>
						<path style="fill:none;stroke:#4F304D;stroke-linecap:round;stroke-linejoin:round;stroke-miterlimit:10;" d="
							M255.938,370.007c7.108,1.573,14.6,1.379,21.616-0.561"/>
						<path style="fill:none;stroke:#4F304D;stroke-linecap:round;stroke-linejoin:round;stroke-miterlimit:10;" d="
							M324.096,327.057c-1.798,9.309-2.222,18.882-1.257,28.314"/>
						<path style="fill:none;stroke:#4F304D;stroke-linecap:round;stroke-linejoin:round;stroke-miterlimit:10;" d="
							M303.895,398.255c-0.003,5.448-1.402,10.889-4.029,15.662"/>
						<path style="fill:none;stroke:#4F304D;stroke-linecap:round;stroke-linejoin:round;stroke-miterlimit:10;" d="M306.32,400.13
							c1.539,4.728,1.887,9.838,1.002,14.731"/>
						<path style="fill:none;stroke:#4F304D;stroke-linecap:round;stroke-linejoin:round;stroke-miterlimit:10;" d="
							M441.671,424.774c11.116,8.628,23.208,15.996,35.972,21.92"/>
						<path style="fill:none;stroke:#4F304D;stroke-linecap:round;stroke-linejoin:round;stroke-miterlimit:10;" d="
							M480.766,461.676c-13.896,6.232-29.606,8.35-44.656,6.021"/>
					</g>
				</g>
				<g>
					<path style="fill:#C58276;" d="M357.601,317.053l-9.358-32.082c-5.521,0.87-10.428,1.722-15.179,2.279
						c-3.587,0.42-7.043-1.403-8.843-4.533c-5.15-8.952-7.332-18.779-7.087-28.561c-5.056-1.075-8.485-3.489-10.098-6.847
						c9.844-7.243,14.781-20.425,12.571-32.384c-0.676-3.655-0.109-7.453,1.501-10.803c8.522-17.73,26.892-30.141,45.902-29.886
						c21.275,0.286,41.325,16.41,46.168,37.129c4.843,20.719-5.982,44.059-25.017,54.727c1.272,4.688,3.401,9.142,7.464,13.258
						c-9.221,5.895-18.442,11.789-27.342,17.17C365.727,303.842,362.452,310.913,357.601,317.053z"/>
					<path style="fill:#4F304D;" d="M382.742,242.576c-5.027-0.039-10.048-0.843-14.278-2.687c3.456-6.974,1.362-16.24-4.498-20.851
						c2.074-8.876,2.263-18.187,0.194-26.435c-10.11-1.138-22.949-1.274-32.838-2.935c-6.518-8.114-6.146-19.883-1.335-29.112
						c0.253,2.561,1.392,5.027,3.178,6.88c-0.809-3.671-0.093-7.653,1.944-10.812c0.904,3.793,3.026,7.287,5.975,9.838
						c-0.209-6.397,2.795-12.82,7.841-16.759c-1.183,4.567,0.72,9.772,4.571,12.498c-1.396-2.183-1.454-5.15-0.145-7.386
						c15.734,14.829,43.054,11.883,58.634,28.025c0.884,3.695,0.85,7.605,0.216,12.989c2.766-0.869,5.532-1.738,9.068-1.999
						c4.357,8.072,9.536,15.7,15.43,22.729c-2.319,0.271-4.638,0.542-6.957,0.812c2.102,1.178,4.203,2.355,6.305,3.533
						c-2.356,0.832-4.713,1.664-7.069,2.497c1.306,0.985,2.611,1.971,3.917,2.956c-6.223,1.391-9.593,7.895-12.819,13.395
						c-7.342,12.516-18.036,23.044-30.707,30.541c-4.642-2.549-8.192-7.016-9.625-12.114
						C378.308,253.081,379.009,247.418,382.742,242.576z"/>
					<g>
						<path style="fill:#C58276;" d="M369.374,243.476c2.992-4.056,6.592-7.936,11.307-9.719c4.715-1.783,10.748-0.888,13.689,3.206
							c1.74,2.422,2.175,5.59,1.803,8.549c-0.633,5.026-3.534,9.722-7.745,12.537c-4.211,2.815-9.66,3.7-14.546,2.363"/>
						<g>
							<path style="fill:none;stroke:#9F4249;stroke-linecap:round;stroke-linejoin:round;stroke-miterlimit:10;" d="
								M390.404,243.088c-2.927-1.337-6.479-1.217-9.31,0.314c-2.831,1.532-4.874,4.439-5.356,7.621"/>
							<path style="fill:none;stroke:#9F4249;stroke-linecap:round;stroke-linejoin:round;stroke-miterlimit:10;" d="
								M385.648,252.194c-0.095-3.396-2.142-6.669-5.154-8.241"/>
						</g>
					</g>
					<path style="fill:none;stroke:#9F4249;stroke-linecap:round;stroke-linejoin:round;stroke-miterlimit:10;" d="M350.171,284.94
						c9.622-3.91,17.396-12.131,20.763-21.956"/>
					<g>
						<path style="fill:none;stroke:#4F304D;stroke-width:2;stroke-linecap:round;stroke-miterlimit:10;" d="M328.828,215.087
							c7.289-1.996,15.715,1.481,19.474,8.036"/>
						<path style="fill:#4F304D;" d="M328.905,233.519c0.368-3.43,1.94-6.074,3.512-5.906c1.572,0.169,2.549,3.086,2.181,6.516
							c-0.368,3.43-1.94,6.074-3.512,5.906C329.514,239.866,328.538,236.949,328.905,233.519z"/>
						<path style="fill:#9F4249;" d="M332.049,246.284c0.277-3.217,4.929-5.444,10.39-4.973c5.46,0.471,9.662,3.461,9.385,6.678
							c-0.277,3.217-4.929,5.444-10.39,4.973C335.973,252.491,331.771,249.501,332.049,246.284z"/>
						<path style="fill:#FFFFFF;" d="M322.157,269.087c5.79,0.897,11.963-1.21,15.996-5.459c0.8-0.843,1.545-1.82,1.723-2.969
							c0.177-1.149-0.397-2.483-1.512-2.813c-0.721-0.214-1.49,0.017-2.21,0.233c-5.185,1.553-10.587,2.381-15.421,2.393
							C320.287,263.495,320.786,266.65,322.157,269.087z"/>
					</g>
				</g>
			</g>
			<g>
				<path style="fill:#E3B795;" d="M150.845,253.72c0.539-9.918,4.865-16.484,10.885-25.638
					c-7.681-10.4-21.087-23.922-28.768-34.322c-6.564,15.731-15.108,30.629-25.365,44.229c11.508,12.536,28.555,23.452,44.846,28.28
					C149.13,261.408,151.654,258.154,150.845,253.72z"/>
				<path style="fill:#4F304D;" d="M201.31,140.837c0.643-0.204,1.285-0.409,1.945-0.631c4.108-1.382,8.685-0.034,11.216,3.484
					c8.708,12.106,14.69,26.298,15.096,41.127c0.477,17.432-7.76,35.579-22.899,44.233c10.745-11.115,15.782-27.48,13.146-42.713
					c0.054,11.997-4.767,23.947-13.133,32.547c-8.365,8.6-20.177,13.75-32.171,14.027
					C184.166,203.574,193.822,174.236,201.31,140.837z"/>
				<g>
					<path style="fill:#E3B795;" d="M136.538,186.659c-3.126,11.896-1.279,25.019,5.012,35.589
						c6.29,10.57,16.943,18.453,28.89,21.379c8.474-6.118,15.308-14.119,19.902-23.256c4.148,1.117,8.701-0.013,11.404-2.988
						c-3.451-5.517-5.167-11.328-5.347-17.192c2.439-4.641,4.391-7.853,6.603-11.352c3.263-5.161,4.915-11.184,4.707-17.287
						c-0.611-17.874-9.776-35.905-25.277-45.437c-13.508-5.83-29.249-7.335-42.995-2.092c-13.746,5.243-24.959,17.83-26.612,32.449
						C111.172,171.091,120.428,186.766,136.538,186.659z"/>
					<path style="fill:none;stroke:#4F304D;stroke-width:2;stroke-linecap:round;stroke-miterlimit:10;" d="M179.175,179.781
						c4.014-4.49,11.052-5.949,16.521-3.425"/>
					<path style="fill:#4F304D;" d="M181.543,197.166c0.839-2.9,2.75-4.894,4.269-4.455s2.07,3.146,1.231,6.046
						c-0.839,2.9-2.75,4.894-4.269,4.455C181.256,202.772,180.704,200.066,181.543,197.166z"/>
					<path style="fill:#CD7265;" d="M161.568,200.613c1.357-2.999,6.378-3.656,11.213-1.468c4.835,2.189,7.655,6.394,6.297,9.393
						c-1.357,2.999-6.378,3.656-11.213,1.468C163.03,207.817,160.211,203.612,161.568,200.613z"/>
					<path style="fill:#FFFFFF;" d="M179.335,230.94c-5.632-2.523-9.732-8.524-10.241-14.988c-0.085-1.078,1.27-1.923,2.116-1.32
						c4.392,3.127,8.785,6.254,13.083,10.086C182.748,226.953,181.202,229.188,179.335,230.94z"/>
				</g>
				<g>
					<path style="fill:#537EC0;" d="M55.594,445.148c0,0-12.322,21.287-8.589,45.36c3.733,24.073,24.446,38.392,45.197,39.154
						c31.352,1.152,121.619-24.831,121.619-24.831l-4.164,34.794l50.46,2.416c0,0,23.626-80.199,11.273-94.478
						c-12.354-14.279-126.699-12.699-148.15-12.699S55.594,445.148,55.594,445.148z"/>
					<path style="fill:#537EC0;" d="M267.318,448.694c0,0,26.615,1.554,32.257,15.898c5.693,14.474-12.682,74.67-12.682,74.67
						l-31.981-1.93"/>
					<g>
						<path style="fill:none;stroke:#2D2B48;stroke-linecap:round;stroke-linejoin:round;stroke-miterlimit:10;" d="
							M215.167,502.481c-1.312-13.349,4.604-27.192,15.159-35.469"/>
						<path style="fill:none;stroke:#2D2B48;stroke-linecap:round;stroke-linejoin:round;stroke-miterlimit:10;" d="
							M245.291,486.716c-9.361,0.875-18.161,6.457-22.944,14.55"/>
						<path style="fill:none;stroke:#2D2B48;stroke-linecap:round;stroke-linejoin:round;stroke-miterlimit:10;" d="
							M105.294,453.856c-10.091,5.098-17.529,15.146-19.459,26.285"/>
						<path style="fill:none;stroke:#2D2B48;stroke-linecap:round;stroke-linejoin:round;stroke-miterlimit:10;" d="
							M112.471,451.971c-6.77,7.534-10.322,17.868-9.615,27.972"/>
						<path style="fill:none;stroke:#2D2B48;stroke-linecap:round;stroke-linejoin:round;stroke-miterlimit:10;" d="
							M273.455,451.446c3.891,17.405-3.529,59.742-12.141,87.682"/>
						<path style="fill:none;stroke:#2D2B48;stroke-linecap:round;stroke-linejoin:round;stroke-miterlimit:10;" d="M76.8,458.816
							c-2.675,6.956,1.701,15.742,10.8,17.714c4.063-3.759,10.961-3.913,16.938-0.953c38.045,8.726,77.906,9.454,117.004,2.368
							c-2.392,6.259,2.719,14.118,9.413,15.29c-4.278,15.66-6.526,31.874-6.67,48.108"/>
					</g>
				</g>
				<path style="fill:#4F304D;" d="M71.319,348.917C53.958,338.042,45.69,314.579,52.4,295.223
					c-6.792,11.35-8.626,25.553-4.94,38.256c-12.712-13.216-13.223-34.48-6.959-51.714c6.264-17.234,18.072-31.764,28.167-47.072
					c15.739-23.865,29.185-49.897,35.033-77.881c4.177-19.989,20.444-38.148,41.406-42.692c20.961-4.544,44.235,4.593,56.506,22.184
					c5.86,2.328,9.55,8.316,10.27,13.791c-8.381-2.793-18.515,1.565-22.253,9.569c-5.103,10.93-14.619,19.722-25.918,23.946
					c-11.299,4.225-24.248,3.832-33.915-0.513C138.437,218.024,89.133,282.977,71.319,348.917z"/>
				<g>
					<path style="fill:#E3B795;" d="M177.038,412.916c9.893-1.708,19.787-3.416,29.68-5.124c4.36-0.753,9.076,1.629,10.831,5.943
						c3.554,0.408,4.284,3.906,4.445,8.037c0,0,0.472-0.172,3.402,3.395c2.93,3.567,14.621,13.317,12.633,15.075
						c-1.988,1.757-9.448,0-9.448,0s-2.504,1.486-6.688,1.486c-4.184,0-11.465-6.582-11.465-6.582s-10.668,6.88-23.622,6.88
						c-20.687,0-33.917-8.26-33.917-8.26L177.038,412.916z"/>
					<path style="fill:none;stroke:#CD7265;stroke-linecap:round;stroke-linejoin:round;stroke-miterlimit:10;" d="M228.366,439.046
						c-2.83-3.08-5.66-6.16-8.595-9.242c-2.875-3.02-7.152-4.26-11.187-3.21l-7.49,1.949"/>
					<path style="fill:none;stroke:#CD7265;stroke-linecap:round;stroke-linejoin:round;stroke-miterlimit:10;" d="M220.554,421.294
						c-0.119-0.036-0.238-0.073-0.357-0.109c-2.088-0.639-4.269-0.924-6.452-0.845l-13.129,0.477"/>
					<path style="fill:none;stroke:#CD7265;stroke-linecap:round;stroke-linejoin:round;stroke-miterlimit:10;" d="M215.88,413.662
						c-5.31,0.509-10.62,1.018-15.931,1.526"/>
				</g>
				<g>
					<path style="fill:#E3B795;" d="M142.451,188.797c-0.765-3.654-2.667-7.181-5.741-9.3c-3.074-2.118-7.395-2.577-10.561-0.599
						c-2.89,1.806-4.386,5.253-4.833,8.631c-0.729,5.507,0.999,11.293,4.626,15.5c3.628,4.207,9.097,6.765,14.651,6.854"/>
					<path style="fill:none;stroke:#CD7265;stroke-linecap:round;stroke-linejoin:round;stroke-miterlimit:10;" d="M126.032,187.665
						c3-0.807,6.314-0.366,8.999,1.197s4.704,4.228,5.484,7.234"/>
					<path style="fill:none;stroke:#CD7265;stroke-linecap:round;stroke-linejoin:round;stroke-miterlimit:10;" d="M128.868,197.987
						c0.092-3.796,2.691-7.409,6.261-8.704"/>
				</g>
				<g>
					<path style="fill:#BA587E;" d="M160.181,401.569c5.728,3.623,13.748,6.507,22.583,9.558
						c-7.252,11.15-17.933,19.423-29.907,24.884c-5.72-0.341-9.446-0.503-14.212-1.193c-23.413,21.12-58.649,27.054-86.726,15.958
						c0.715-5.895,3.524-12.334,6.333-18.773c-1.485-3.228-1.687-8.14-0.56-12.501c1.127-4.362,3.443-8.307,5.731-12.187
						c0,0,0,0,0,0c-5.544-3.566-8.856-9.746-9.009-16.332c-0.856-36.803,2.769-73.248,10.683-108.692
						c1.825-8.174,6.306-15.509,12.795-20.803c12.528-10.221,25.478-18.553,39.452-24.496c6.355,9.524,22.084,27.081,33.548,25.799
						c9.175,12.014,12.254,18.557,19.723,32.373c6.17,11.414,8.49,24.547,6.577,37.38c-2.546,17.081-8.243,33.865-14.701,57.293
						C163.025,396.045,162.225,397.353,160.181,401.569z"/>
					<g>
						<path style="fill:none;stroke:#4F304D;stroke-linecap:round;stroke-linejoin:round;stroke-miterlimit:10;" d="
							M107.875,267.371c15.446,19.723,17.082,49.175,3.915,70.487"/>
						<path style="fill:none;stroke:#4F304D;stroke-linecap:round;stroke-linejoin:round;stroke-miterlimit:10;" d="
							M113.858,317.648c-1.806,16.395-3.612,32.79-5.419,49.186"/>
						<path style="fill:none;stroke:#4F304D;stroke-linecap:round;stroke-linejoin:round;stroke-miterlimit:10;" d="M86.292,378.03
							c0,0,16.227-11.091,22.143-10.687c5.916,0.403,3.764,4.587,3.764,4.587s22.27,17.819,46.625,28.973"/>
						<path style="fill:none;stroke:#4F304D;stroke-linecap:round;stroke-linejoin:round;stroke-miterlimit:10;" d="
							M110.203,374.527c-4.454,4.77-8.907,9.539-13.361,14.309c-2.815,3.014-8.257,2.94-10.989-0.15"/>
						<path style="fill:none;stroke:#4F304D;stroke-linecap:round;stroke-linejoin:round;stroke-miterlimit:10;" d="M64.749,408.221
							c18.741,9.727,48.117,19.555,70.797,25.685"/>
					</g>
				</g>
				<g>
					<path style="fill:#4F304D;" d="M164.936,172.472c-10.524,15.574-16.833,35.159-10.508,52.645
						c2.106,5.824,5.561,11.301,6.306,17.415c1.71,14.046-11.15,26.565-10.89,40.701c0.125,6.815,3.304,13.2,5.103,19.8
						c1.799,6.601,1.903,14.416-3.079,19.344c1.453-5.241,0.255-11.081-3.166-15.427c3.514,7.197,0.917,16.583-5.875,21.232
						c2.741-6.673-0.294-14.165-3.946-20.436c-3.653-6.271-8.092-12.592-8.29-19.748c-0.193-6.97,2.924-15.154,5.348-21.73
						c6.563-17.807,0.568-28.442-1.274-38.101c-3.347-17.555,3.355-39.494,13.772-52.076
						C156.459,176.329,153.301,173.838,164.936,172.472z"/>
					<g>
						<path style="fill:none;stroke:#372139;stroke-linecap:round;stroke-linejoin:round;stroke-miterlimit:10;" d="
							M197.675,135.901c-7.962-1.843-16.387,0.64-23.479,4.7c-7.093,4.06-13.184,9.621-19.657,14.61
							c-6.473,4.989-13.604,9.529-21.641,11.015s-17.164-0.65-22.234-7.06c-1.18,3.281-0.617,7.135,1.452,9.942
							c-1.823-0.896-3.159-2.721-3.46-4.73c-0.286,7.301,4.737,14.491,11.691,16.734"/>
						<path style="fill:none;stroke:#372139;stroke-linecap:round;stroke-linejoin:round;stroke-miterlimit:10;" d="
							M156.275,186.292c-4.967,1.381-10.047,1.272-13.825,0"/>
						<path style="fill:none;stroke:#372139;stroke-linecap:round;stroke-linejoin:round;stroke-miterlimit:10;" d="
							M207.413,142.133c2.445,1.771,4.146,4.54,4.62,7.522c0.474,2.982-0.284,6.141-2.06,8.584"/>
					</g>
					<g>
						<path style="fill:#4F304D;" d="M68.7,264.229c20.018-10.429,31.903-7.752,46.202-19.912
							c10.532-8.956,13.95-21.973,13.392-37.271C111.551,223.947,85.819,248.526,68.7,264.229z"/>
						<path style="fill:none;stroke:#372139;stroke-linecap:round;stroke-linejoin:round;stroke-miterlimit:10;" d="
							M118.879,203.271c-8.676,16.811-23.09,30.595-40.272,38.512c-3.918,1.805-8.019,3.341-11.475,5.924
							c-3.456,2.583-6.255,6.487-6.241,10.801c2.424-3.328,6.261-5.591,10.347-6.103c-8.652,5.584-13.435,16.597-11.61,26.732
							c2.684-8.363,9.197-15.411,17.322-18.746"/>
					</g>
				</g>
			</g>
		</g>
	</g>
</g>
</svg>
